mtllib material.mtl
usemtl material_0
v 0.01287900 0.01823100 0.07500000
v 0.01287900 0.01823100 0.07300000
v 0.01132800 0.01543200 0.07300000
v 0.01122900 0.02097400 0.07500000
v 0.01122900 0.02097400 0.07300000
v 0.01287900 0.01823100 0.07300000
v 0.01287900 0.01823100 0.07500000
v 0.01132800 0.01543200 0.07500000
v 0.00812900 0.01537500 0.07300000
v 0.00812900 0.01537500 0.07500000
v 0.00648000 0.01811800 0.07300000
v 0.00648000 0.01811800 0.07500000
v 0.00648000 0.01811800 0.07300000
v 0.00803100 0.02091700 0.07300000
v 0.00648000 0.01811800 0.07500000
v 0.00803100 0.02091700 0.07500000
v -0.00711800 0.01787700 0.07500000
v -0.00711800 0.01787700 0.07300000
v -0.00866900 0.01507700 0.07300000
v -0.00876700 0.02061900 0.07500000
v -0.00876700 0.02061900 0.07300000
v -0.00711800 0.01787700 0.07300000
v -0.00711800 0.01787700 0.07500000
v -0.00866900 0.01507700 0.07500000
v -0.01186800 0.01502100 0.07300000
v -0.01186800 0.01502100 0.07500000
v -0.01351700 0.01776300 0.07300000
v -0.01351700 0.01776300 0.07500000
v -0.01351700 0.01776300 0.07300000
v -0.01196600 0.02056200 0.07300000
v -0.01351700 0.01776300 0.07500000
v -0.01196600 0.02056200 0.07500000
v -0.00648000 -0.01811800 0.07500000
v -0.00648000 -0.01811800 0.07300000
v -0.00803100 -0.02091700 0.07300000
v -0.00812900 -0.01537500 0.07500000
v -0.00812900 -0.01537500 0.07300000
v -0.00648000 -0.01811800 0.07300000
v -0.00648000 -0.01811800 0.07500000
v -0.00803100 -0.02091700 0.07500000
v -0.01122900 -0.02097400 0.07300000
v -0.01122900 -0.02097400 0.07500000
v -0.01287900 -0.01823100 0.07300000
v -0.01287900 -0.01823100 0.07500000
v -0.01287900 -0.01823100 0.07300000
v -0.01132800 -0.01543200 0.07300000
v -0.01287900 -0.01823100 0.07500000
v -0.01132800 -0.01543200 0.07500000
v 0.01351700 -0.01776300 0.07500000
v 0.01351700 -0.01776300 0.07300000
v 0.01196600 -0.02056200 0.07300000
v 0.01186800 -0.01502100 0.07500000
v 0.01186800 -0.01502100 0.07300000
v 0.01351700 -0.01776300 0.07300000
v 0.01351700 -0.01776300 0.07500000
v 0.01196600 -0.02056200 0.07500000
v 0.00876700 -0.02061900 0.07300000
v 0.00876700 -0.02061900 0.07500000
v 0.00711800 -0.01787700 0.07300000
v 0.00711800 -0.01787700 0.07500000
v 0.00711800 -0.01787700 0.07300000
v 0.00866900 -0.01507700 0.07300000
v 0.00711800 -0.01787700 0.07500000
v 0.00866900 -0.01507700 0.07500000
v 0.00519400 -0.01091000 0.07500000
v 0.00519400 -0.01091000 0.07300000
v 0.00421200 -0.01192700 0.07300000
v 0.00417700 -0.00992800 0.07500000
v 0.00417700 -0.00992800 0.07300000
v 0.00519400 -0.01091000 0.07300000
v 0.00519400 -0.01091000 0.07500000
v 0.00421200 -0.01192700 0.07500000
v 0.00319500 -0.01094500 0.07300000
v 0.00319500 -0.01094500 0.07500000
v 0.00319500 -0.01094500 0.07300000
v 0.00319500 -0.01094500 0.07500000
v -0.00280500 -0.01105100 0.07500000
v -0.00280500 -0.01105100 0.07300000
v -0.00378700 -0.01206900 0.07300000
v -0.00382200 -0.01007000 0.07500000
v -0.00382200 -0.01007000 0.07300000
v -0.00280500 -0.01105100 0.07300000
v -0.00280500 -0.01105100 0.07500000
v -0.00378700 -0.01206900 0.07500000
v -0.00480400 -0.01108700 0.07300000
v -0.00480400 -0.01108700 0.07500000
v -0.00480400 -0.01108700 0.07300000
v -0.00480400 -0.01108700 0.07500000
v -0.00319500 0.01094500 0.07500000
v -0.00319500 0.01094500 0.07300000
v -0.00417700 0.00992800 0.07300000
v -0.00421200 0.01192700 0.07500000
v -0.00421200 0.01192700 0.07300000
v -0.00319500 0.01094500 0.07300000
v -0.00319500 0.01094500 0.07500000
v -0.00417700 0.00992800 0.07500000
v -0.00519400 0.01091000 0.07300000
v -0.00519400 0.01091000 0.07500000
v -0.00519400 0.01091000 0.07300000
v -0.00519400 0.01091000 0.07500000
v 0.00480400 0.01108700 0.07500000
v 0.00480400 0.01108700 0.07300000
v 0.00382200 0.01007000 0.07300000
v 0.00378700 0.01206900 0.07500000
v 0.00378700 0.01206900 0.07300000
v 0.00480400 0.01108700 0.07300000
v 0.00480400 0.01108700 0.07500000
v 0.00382200 0.01007000 0.07500000
v 0.00280500 0.01105100 0.07300000
v 0.00280500 0.01105100 0.07500000
v 0.00280500 0.01105100 0.07300000
v 0.00280500 0.01105100 0.07500000
v 0.00449900 0.00008000 0.07500000
v 0.00449900 0.00008000 0.07300000
v 0.00231900 -0.00385700 0.07300000
v 0.00218100 0.00393600 0.07500000
v 0.00218100 0.00393600 0.07300000
v 0.00449900 0.00008000 0.07300000
v 0.00449900 0.00008000 0.07500000
v 0.00231900 -0.00385700 0.07500000
v -0.00218100 -0.00393600 0.07300000
v -0.00218100 -0.00393600 0.07500000
v -0.00449900 -0.00008000 0.07300000
v -0.00449900 -0.00008000 0.07500000
v -0.00449900 -0.00008000 0.07300000
v -0.00231900 0.00385700 0.07300000
v -0.00449900 -0.00008000 0.07500000
v -0.00231900 0.00385700 0.07500000
v -0.01750100 -0.02831500 0.07500000
v -0.01750100 -0.02831500 0.07300000
v 0.01849400 -0.02767600 0.07300000
v -0.01849400 0.02767600 0.07500000
v -0.01849400 0.02767600 0.07300000
v -0.01750100 -0.02831500 0.07300000
v -0.01750100 -0.02831500 0.07500000
v 0.01849400 -0.02767600 0.07500000
v 0.01849400 -0.02767600 0.07300000
v 0.01750100 0.02831500 0.07300000
v 0.01849400 -0.02767600 0.07500000
v 0.01750100 0.02831500 0.07500000
v 0.01750100 0.02831500 0.07300000
v -0.01849400 0.02767600 0.07300000
v 0.01750100 0.02831500 0.07500000
v -0.01849400 0.02767600 0.07500000
v -0.01196600 0.02056200 0.07500000
v 0.01750100 0.02831500 0.07500000
v -0.01849400 0.02767600 0.07500000
v 0.01351700 -0.01776300 0.07500000
v 0.01849400 -0.02767600 0.07500000
v 0.01122900 0.02097400 0.07500000
v 0.01287900 0.01823100 0.07500000
v 0.00417700 -0.00992800 0.07500000
v 0.00803100 0.02091700 0.07500000
v -0.00876700 0.02061900 0.07500000
v 0.01186800 -0.01502100 0.07500000
v 0.00866900 -0.01507700 0.07500000
v 0.00519400 -0.01091000 0.07500000
v -0.01351700 0.01776300 0.07500000
v -0.01750100 -0.02831500 0.07500000
v 0.01196600 -0.02056200 0.07500000
v -0.01186800 0.01502100 0.07500000
v -0.00866900 0.01507700 0.07500000
v -0.00519400 0.01091000 0.07500000
v -0.01122900 -0.02097400 0.07500000
v -0.01287900 -0.01823100 0.07500000
v -0.00417700 0.00992800 0.07500000
v -0.00803100 -0.02091700 0.07500000
v 0.00876700 -0.02061900 0.07500000
v 0.00449900 0.00008000 0.07500000
v 0.01132800 0.01543200 0.07500000
v -0.00711800 0.01787700 0.07500000
v 0.00648000 0.01811800 0.07500000
v 0.00812900 0.01537500 0.07500000
v -0.00421200 0.01192700 0.07500000
v 0.00378700 0.01206900 0.07500000
v 0.00382200 0.01007000 0.07500000
v 0.00480400 0.01108700 0.07500000
v -0.00231900 0.00385700 0.07500000
v 0.00218100 0.00393600 0.07500000
v -0.00812900 -0.01537500 0.07500000
v -0.00648000 -0.01811800 0.07500000
v 0.00711800 -0.01787700 0.07500000
v -0.00449900 -0.00008000 0.07500000
v -0.01132800 -0.01543200 0.07500000
v 0.00421200 -0.01192700 0.07500000
v -0.00378700 -0.01206900 0.07500000
v -0.00480400 -0.01108700 0.07500000
v -0.00382200 -0.01007000 0.07500000
v 0.00231900 -0.00385700 0.07500000
v -0.00218100 -0.00393600 0.07500000
v 0.00319500 -0.01094500 0.07500000
v -0.00280500 -0.01105100 0.07500000
v 0.00280500 0.01105100 0.07500000
v -0.00319500 0.01094500 0.07500000
vn -0.99980000 -0.01800000 0.00000000
vn -0.99980000 -0.01800000 0.00000000
vn -0.51530000 0.85700000 0.00000000
vn -0.48480000 -0.87460000 -0.00000000
vn -0.48480000 -0.87460000 -0.00000000
vn -0.99980000 -0.01800000 0.00000000
vn -0.99980000 -0.01800000 0.00000000
vn -0.51530000 0.85700000 0.00000000
vn 0.48500000 0.87450000 0.00000000
vn 0.48480000 0.87460000 -0.00000000
vn 0.99980000 0.01800000 0.00000000
vn 0.99980000 0.01800000 0.00000000
vn 0.99980000 0.01800000 0.00000000
vn 0.51530000 -0.85700000 0.00000000
vn 0.99980000 0.01800000 0.00000000
vn 0.51530000 -0.85700000 0.00000000
vn -0.99980000 -0.01800000 0.00000000
vn -0.99980000 -0.01800000 0.00000000
vn -0.51480000 0.85730000 0.00000000
vn -0.48490000 -0.87460000 0.00000000
vn -0.48490000 -0.87460000 0.00000000
vn -0.99980000 -0.01800000 0.00000000
vn -0.99980000 -0.01800000 0.00000000
vn -0.51480000 0.85730000 0.00000000
vn 0.48500000 0.87450000 0.00000000
vn 0.48490000 0.87460000 -0.00000000
vn 0.99980000 0.01800000 0.00000000
vn 0.99980000 0.01800000 0.00000000
vn 0.99980000 0.01800000 0.00000000
vn 0.51530000 -0.85700000 0.00000000
vn 0.99980000 0.01800000 0.00000000
vn 0.51530000 -0.85700000 0.00000000
vn -0.99980000 -0.01800000 0.00000000
vn -0.99980000 -0.01800000 0.00000000
vn -0.51530000 0.85700000 0.00000000
vn -0.48480000 -0.87460000 -0.00000000
vn -0.48500000 -0.87450000 0.00000000
vn -0.99980000 -0.01800000 0.00000000
vn -0.99980000 -0.01800000 0.00000000
vn -0.51530000 0.85700000 0.00000000
vn 0.48480000 0.87460000 -0.00000000
vn 0.48480000 0.87460000 -0.00000000
vn 0.99980000 0.01800000 0.00000000
vn 0.99980000 0.01800000 0.00000000
vn 0.99980000 0.01800000 0.00000000
vn 0.51530000 -0.85700000 0.00000000
vn 0.99980000 0.01800000 0.00000000
vn 0.51530000 -0.85700000 0.00000000
vn -0.99980000 -0.01800000 0.00000000
vn -0.99980000 -0.01800000 0.00000000
vn -0.51530000 0.85700000 0.00000000
vn -0.48490000 -0.87460000 0.00000000
vn -0.48500000 -0.87450000 0.00000000
vn -0.99980000 -0.01800000 0.00000000
vn -0.99980000 -0.01800000 0.00000000
vn -0.51530000 0.85700000 0.00000000
vn 0.48490000 0.87460000 -0.00000000
vn 0.48490000 0.87460000 -0.00000000
vn 0.99980000 0.01800000 0.00000000
vn 0.99980000 0.01800000 0.00000000
vn 0.99980000 0.01800000 0.00000000
vn 0.51480000 -0.85730000 -0.00000000
vn 0.99980000 0.01800000 0.00000000
vn 0.51480000 -0.85730000 -0.00000000
vn -0.99980000 -0.01800000 0.00000000
vn -0.99980000 -0.01800000 0.00000000
vn -0.01800000 0.99980000 -0.00000000
vn 0.01810000 -0.99980000 0.00000000
vn 0.01800000 -0.99980000 -0.00000000
vn -0.99980000 -0.01800000 0.00000000
vn -0.99980000 -0.01800000 0.00000000
vn -0.01800000 0.99980000 -0.00000000
vn 0.99980000 0.01800000 0.00000000
vn 0.99980000 0.01800000 0.00000000
vn 0.99980000 0.01800000 0.00000000
vn 0.99980000 0.01800000 0.00000000
vn -0.99980000 -0.01800000 0.00000000
vn -0.99980000 -0.01800000 0.00000000
vn -0.01810000 0.99980000 -0.00000000
vn 0.01780000 -0.99980000 0.00000000
vn 0.01780000 -0.99980000 0.00000000
vn -0.99980000 -0.01800000 0.00000000
vn -0.99980000 -0.01800000 0.00000000
vn -0.01810000 0.99980000 -0.00000000
vn 0.99980000 0.01800000 0.00000000
vn 0.99980000 0.01800000 0.00000000
vn 0.99980000 0.01800000 0.00000000
vn 0.99980000 0.01800000 0.00000000
vn -0.99980000 -0.01800000 0.00000000
vn -0.99980000 -0.01800000 0.00000000
vn -0.01800000 0.99980000 -0.00000000
vn 0.01800000 -0.99980000 -0.00000000
vn 0.01800000 -0.99980000 -0.00000000
vn -0.99980000 -0.01800000 0.00000000
vn -0.99980000 -0.01800000 0.00000000
vn -0.01810000 0.99980000 -0.00000000
vn 0.99980000 0.01800000 0.00000000
vn 0.99980000 0.01800000 0.00000000
vn 0.99980000 0.01800000 0.00000000
vn 0.99980000 0.01800000 0.00000000
vn -0.99980000 -0.01800000 0.00000000
vn -0.99980000 -0.01800000 0.00000000
vn -0.01780000 0.99980000 -0.00000000
vn 0.01810000 -0.99980000 0.00000000
vn 0.01810000 -0.99980000 0.00000000
vn -0.99980000 -0.01800000 0.00000000
vn -0.99980000 -0.01800000 0.00000000
vn -0.01780000 0.99980000 -0.00000000
vn 0.99980000 0.01800000 0.00000000
vn 0.99980000 0.01800000 0.00000000
vn 0.99980000 0.01800000 0.00000000
vn 0.99980000 0.01800000 0.00000000
vn -0.99980000 -0.01800000 0.00000000
vn -0.99980000 -0.01800000 0.00000000
vn -0.51490000 0.85730000 -0.00000000
vn -0.48470000 -0.87470000 -0.00000000
vn -0.48500000 -0.87450000 0.00000000
vn -0.99980000 -0.01800000 0.00000000
vn -0.99980000 -0.01800000 0.00000000
vn -0.51530000 0.85700000 0.00000000
vn 0.48500000 0.87450000 0.00000000
vn 0.48470000 0.87470000 -0.00000000
vn 0.99980000 0.01800000 0.00000000
vn 0.99980000 0.01800000 0.00000000
vn 0.99980000 0.01800000 0.00000000
vn 0.51490000 -0.85730000 0.00000000
vn 0.99980000 0.01800000 0.00000000
vn 0.51530000 -0.85700000 0.00000000
vn 0.01820000 -0.99980000 0.00000000
vn 0.01820000 -0.99980000 0.00000000
vn 0.01820000 -0.99980000 0.00000000
vn -0.99980000 -0.01820000 0.00000000
vn -0.99980000 -0.01810000 0.00000000
vn -0.99980000 -0.01820000 0.00000000
vn -0.99980000 -0.01810000 0.00000000
vn 0.99980000 0.01820000 0.00000000
vn 0.99980000 0.01810000 0.00000000
vn 0.99980000 0.01820000 0.00000000
vn 0.01820000 -0.99980000 0.00000000
vn -0.01820000 0.99980000 0.00000000
vn -0.01820000 0.99980000 0.00000000
vn -0.01820000 0.99980000 0.00000000
vn 0.99980000 0.01810000 0.00000000
vn -0.01820000 0.99980000 0.00000000
vn -0.00000000 0.00000000 1.00000000
vn -0.00000000 0.00000000 1.00000000
vn -0.00000000 0.00000000 1.00000000
vn -0.00000000 0.00000000 1.00000000
vn -0.00000000 0.00000000 1.00000000
vn -0.00000000 0.00000000 1.00000000
vn -0.00000000 0.00000000 1.00000000
vn -0.00000000 0.00000000 1.00000000
vn -0.00000000 0.00000000 1.00000000
vn -0.00000000 0.00000000 1.00000000
vn -0.00000000 0.00000000 1.00000000
vn -0.00000000 0.00000000 1.00000000
vn -0.00000000 0.00000000 1.00000000
vn -0.00000000 0.00000000 1.00000000
vn -0.00000000 0.00000000 1.00000000
vn -0.00000000 0.00000000 1.00000000
vn -0.00000000 0.00000000 1.00000000
vn -0.00000000 0.00000000 1.00000000
vn -0.00000000 0.00000000 1.00000000
vn -0.00000000 0.00000000 1.00000000
vn -0.00000000 0.00000000 1.00000000
vn -0.00000000 0.00000000 1.00000000
vn -0.00000000 0.00000000 1.00000000
vn -0.00000000 0.00000000 1.00000000
vn -0.00000000 0.00000000 1.00000000
vn -0.00000000 0.00000000 1.00000000
vn -0.00000000 0.00000000 1.00000000
vn -0.00000000 0.00000000 1.00000000
vn -0.00000000 0.00000000 1.00000000
vn -0.00000000 0.00000000 1.00000000
vn -0.00000000 0.00000000 1.00000000
vn -0.00000000 0.00000000 1.00000000
vn -0.00000000 0.00000000 1.00000000
vn -0.00000000 0.00000000 1.00000000
vn -0.00000000 0.00000000 1.00000000
vn -0.00000000 0.00000000 1.00000000
vn -0.00000000 0.00000000 1.00000000
vn -0.00000000 0.00000000 1.00000000
vn -0.00000000 0.00000000 1.00000000
vn -0.00000000 0.00000000 1.00000000
vn -0.00000000 0.00000000 1.00000000
vn -0.00000000 0.00000000 1.00000000
vn -0.00000000 0.00000000 1.00000000
vn -0.00000000 0.00000000 1.00000000
vn -0.00000000 0.00000000 1.00000000
vn -0.00000000 0.00000000 1.00000000
vn -0.00000000 0.00000000 1.00000000
vn -0.00000000 0.00000000 1.00000000
vn -0.00000000 0.00000000 1.00000000
vn -0.00000000 0.00000000 1.00000000
vt 0.76065400 0.13854800
vt 0.76065400 0.13107400
vt 0.75726200 0.17135600
vt 0.78367100 0.12064700
vt 0.78367100 0.11277100
vt 0.76065400 0.13107400
vt 0.76065400 0.13854800
vt 0.75726200 0.17791100
vt 0.78464300 0.19393200
vt 0.78464300 0.19995200
vt 0.81128400 0.17009500
vt 0.81128400 0.17667800
vt 0.81128400 0.17009500
vt 0.80697500 0.13001600
vt 0.81128400 0.17667800
vt 0.80697500 0.13751300
vt 0.94597800 0.17667800
vt 0.94597800 0.17009500
vt 0.97261900 0.19393200
vt 0.95028700 0.13751300
vt 0.95028700 0.13001600
vt 0.94597800 0.17009500
vt 0.94597800 0.17667800
vt 0.97261900 0.19995200
vt 1.00000000 0.17135600
vt 1.00000000 0.17791100
vt 0.99660800 0.13107400
vt 0.99660800 0.13854800
vt 0.99660800 0.13107400
vt 0.97359000 0.11277100
vt 0.99660800 0.13854800
vt 0.97359000 0.12064700
vt 0.22553000 0.17667800
vt 0.22553000 0.17009500
vt 0.22122100 0.13001600
vt 0.19888900 0.19995200
vt 0.19888900 0.19393200
vt 0.22553000 0.17009500
vt 0.22553000 0.17667800
vt 0.22122100 0.13751300
vt 0.19791800 0.11277100
vt 0.19791800 0.12064700
vt 0.17490000 0.13107400
vt 0.17490000 0.13854800
vt 0.17490000 0.13107400
vt 0.17150800 0.17135600
vt 0.17490000 0.13854800
vt 0.17150800 0.17791100
vt 0.41085400 0.13854800
vt 0.41085400 0.13107400
vt 0.38783600 0.11277100
vt 0.41424600 0.17791100
vt 0.41424600 0.17135600
vt 0.41085400 0.13107400
vt 0.41085400 0.13854800
vt 0.38783600 0.12064700
vt 0.36453300 0.13001600
vt 0.36453300 0.13751300
vt 0.36022400 0.17009500
vt 0.36022400 0.17667800
vt 0.36022400 0.17009500
vt 0.38686500 0.19393200
vt 0.36022400 0.17667800
vt 0.38686500 0.19995200
vt 0.37242200 0.26808200
vt 0.37242200 0.26378300
vt 0.35286800 0.25624700
vt 0.36382200 0.28518600
vt 0.36382200 0.28133300
vt 0.37242200 0.26378300
vt 0.37242200 0.26808200
vt 0.35286800 0.26073600
vt 0.34252000 0.27288000
vt 0.34252000 0.27694900
vt 0.34252000 0.27288000
vt 0.34252000 0.27694900
vt 0.24323400 0.27694900
vt 0.24323400 0.27288000
vt 0.23288500 0.25624700
vt 0.22193200 0.28518600
vt 0.22193200 0.28133300
vt 0.24323400 0.27288000
vt 0.24323400 0.27694900
vt 0.23288500 0.26073600
vt 0.21333200 0.26378300
vt 0.21333200 0.26808200
vt 0.21333200 0.26378300
vt 0.21333200 0.26808200
vt 0.92827400 0.27694900
vt 0.92827400 0.27288000
vt 0.94957600 0.28133300
vt 0.93862200 0.26073600
vt 0.93862200 0.25624700
vt 0.92827400 0.27288000
vt 0.92827400 0.27694900
vt 0.94957600 0.28518600
vt 0.95817600 0.26378300
vt 0.95817600 0.26808200
vt 0.95817600 0.26378300
vt 0.95817600 0.26808200
vt 0.79908600 0.26808200
vt 0.79908600 0.26378300
vt 0.80768600 0.28133300
vt 0.81863900 0.26073600
vt 0.81863900 0.25624700
vt 0.79908600 0.26378300
vt 0.79908600 0.26808200
vt 0.80768600 0.28518600
vt 0.82898800 0.27288000
vt 0.82898800 0.27694900
vt 0.82898800 0.27288000
vt 0.82898800 0.27694900
vt 0.58575400 0.36788900
vt 0.58575400 0.36625100
vt 0.39050300 0.36625100
vt 0.78100500 0.36788900
vt 0.78100500 0.36625100
vt 0.58575400 0.36625100
vt 0.58575400 0.36788900
vt 0.39050300 0.36788900
vt 0.19525100 0.36625100
vt 0.19525100 0.36788900
vt 0.00000000 0.36625100
vt 0.00000000 0.36788900
vt 0.00000000 0.36625100
vt 0.97625700 0.36625100
vt 0.00000000 0.36788900
vt 0.97625700 0.36788900
vt 0.18635000 0.01011300
vt 0.18635000 0.00000000
vt 0.39940400 0.00000000
vt 0.98515700 0.01011300
vt 0.98515700 0.00000000
vt 0.18635000 0.00000000
vt 0.18635000 0.01011300
vt 0.39940400 0.01011300
vt 0.39940400 0.00000000
vt 0.77210400 0.00000000
vt 0.39940400 0.01011300
vt 0.77210400 0.01011300
vt 0.77210400 0.00000000
vt 0.98515700 0.00000000
vt 0.77210400 0.01011300
vt 0.98515700 0.01011300
vt 0.97359000 0.12064700
vt 0.77210400 0.01011300
vt 0.98515700 0.01011300
vt 0.41085400 0.13854800
vt 0.39940400 0.01011300
vt 0.78367100 0.12064700
vt 0.76065400 0.13854800
vt 0.36382200 0.28518600
vt 0.80697500 0.13751300
vt 0.95028700 0.13751300
vt 0.41424600 0.17791100
vt 0.38686500 0.19995200
vt 0.37242200 0.26808200
vt 0.99660800 0.13854800
vt 0.18635000 0.01011300
vt 0.38783600 0.12064700
vt 1.00000000 0.17791100
vt 0.97261900 0.19995200
vt 0.95817600 0.26808200
vt 0.19791800 0.12064700
vt 0.17490000 0.13854800
vt 0.94957600 0.28518600
vt 0.22122100 0.13751300
vt 0.36453300 0.13751300
vt 0.58575400 0.36788900
vt 0.75726200 0.17791100
vt 0.94597800 0.17667800
vt 0.81128400 0.17667800
vt 0.78464300 0.19995200
vt 0.93862200 0.26073600
vt 0.81863900 0.26073600
vt 0.80768600 0.28518600
vt 0.79908600 0.26808200
vt 0.97625700 0.36788900
vt 0.78100500 0.36788900
vt 0.19888900 0.19995200
vt 0.22553000 0.17667800
vt 0.36022400 0.17667800
vt 0.00000000 0.36788900
vt 0.17150800 0.17791100
vt 0.35286800 0.26073600
vt 0.23288500 0.26073600
vt 0.21333200 0.26808200
vt 0.22193200 0.28518600
vt 0.39050300 0.36788900
vt 0.19525100 0.36788900
vt 0.34252000 0.27694900
vt 0.24323400 0.27694900
vt 0.82898800 0.27694900
vt 0.92827400 0.27694900
f 1/1/1 2/2/2 3/3/3
f 4/4/4 5/5/5 6/6/6
f 4/4/4 6/6/6 7/7/7
f 8/8/8 3/3/3 9/9/9
f 8/8/8 1/1/1 3/3/3
f 10/10/10 9/9/9 11/11/11
f 10/10/10 8/8/8 9/9/9
f 12/12/12 13/13/13 14/14/14
f 10/10/10 11/11/11 15/15/15
f 16/16/16 14/14/14 5/5/5
f 16/16/16 12/12/12 14/14/14
f 4/4/4 16/16/16 5/5/5
f 17/17/17 18/18/18 19/19/19
f 20/20/20 21/21/21 22/22/22
f 20/20/20 22/22/22 23/23/23
f 24/24/24 19/19/19 25/25/25
f 24/24/24 17/17/17 19/19/19
f 26/26/26 25/25/25 27/27/27
f 26/26/26 24/24/24 25/25/25
f 28/28/28 29/29/29 30/30/30
f 26/26/26 27/27/27 31/31/31
f 32/32/32 30/30/30 21/21/21
f 32/32/32 28/28/28 30/30/30
f 20/20/20 32/32/32 21/21/21
f 33/33/33 34/34/34 35/35/35
f 36/36/36 37/37/37 38/38/38
f 36/36/36 38/38/38 39/39/39
f 40/40/40 35/35/35 41/41/41
f 40/40/40 33/33/33 35/35/35
f 42/42/42 41/41/41 43/43/43
f 42/42/42 40/40/40 41/41/41
f 44/44/44 45/45/45 46/46/46
f 42/42/42 43/43/43 47/47/47
f 48/48/48 46/46/46 37/37/37
f 48/48/48 44/44/44 46/46/46
f 36/36/36 48/48/48 37/37/37
f 49/49/49 50/50/50 51/51/51
f 52/52/52 53/53/53 54/54/54
f 52/52/52 54/54/54 55/55/55
f 56/56/56 51/51/51 57/57/57
f 56/56/56 49/49/49 51/51/51
f 58/58/58 57/57/57 59/59/59
f 58/58/58 56/56/56 57/57/57
f 60/60/60 61/61/61 62/62/62
f 58/58/58 59/59/59 63/63/63
f 64/64/64 62/62/62 53/53/53
f 64/64/64 60/60/60 62/62/62
f 52/52/52 64/64/64 53/53/53
f 65/65/65 66/66/66 67/67/67
f 68/68/68 69/69/69 70/70/70
f 68/68/68 70/70/70 71/71/71
f 72/72/72 67/67/67 73/73/73
f 72/72/72 65/65/65 67/67/67
f 74/74/74 75/75/75 69/69/69
f 76/76/76 72/72/72 73/73/73
f 68/68/68 74/74/74 69/69/69
f 77/77/77 78/78/78 79/79/79
f 80/80/80 81/81/81 82/82/82
f 80/80/80 82/82/82 83/83/83
f 84/84/84 79/79/79 85/85/85
f 84/84/84 77/77/77 79/79/79
f 86/86/86 87/87/87 81/81/81
f 88/88/88 84/84/84 85/85/85
f 80/80/80 86/86/86 81/81/81
f 89/89/89 90/90/90 91/91/91
f 92/92/92 93/93/93 94/94/94
f 92/92/92 94/94/94 95/95/95
f 96/96/96 91/91/91 97/97/97
f 96/96/96 89/89/89 91/91/91
f 98/98/98 99/99/99 93/93/93
f 100/100/100 96/96/96 97/97/97
f 92/92/92 98/98/98 93/93/93
f 101/101/101 102/102/102 103/103/103
f 104/104/104 105/105/105 106/106/106
f 104/104/104 106/106/106 107/107/107
f 108/108/108 103/103/103 109/109/109
f 108/108/108 101/101/101 103/103/103
f 110/110/110 111/111/111 105/105/105
f 112/112/112 108/108/108 109/109/109
f 104/104/104 110/110/110 105/105/105
f 113/113/113 114/114/114 115/115/115
f 116/116/116 117/117/117 118/118/118
f 116/116/116 118/118/118 119/119/119
f 120/120/120 115/115/115 121/121/121
f 120/120/120 113/113/113 115/115/115
f 122/122/122 121/121/121 123/123/123
f 122/122/122 120/120/120 121/121/121
f 124/124/124 125/125/125 126/126/126
f 127/127/127 122/122/122 123/123/123
f 128/128/128 126/126/126 117/117/117
f 128/128/128 124/124/124 126/126/126
f 116/116/116 128/128/128 117/117/117
f 129/129/129 130/130/130 131/131/131
f 132/132/132 133/133/133 134/134/134
f 135/135/135 132/132/132 134/134/134
f 136/136/136 137/137/137 138/138/138
f 139/139/139 129/129/129 131/131/131
f 140/140/140 141/141/141 142/142/142
f 136/136/136 138/138/138 143/143/143
f 144/144/144 140/140/140 142/142/142
f 145/145/145 146/146/146 147/147/147
f 148/148/148 149/149/149 146/146/146
f 150/150/150 151/151/151 146/146/146
f 152/152/152 146/146/146 151/151/151
f 150/150/150 146/146/146 153/153/153
f 154/154/154 153/153/153 146/146/146
f 154/154/154 146/146/146 145/145/145
f 155/155/155 148/148/148 146/146/146
f 155/155/155 146/146/146 156/156/156
f 157/157/157 156/156/156 146/146/146
f 152/152/152 157/157/157 146/146/146
f 158/158/158 147/147/147 159/159/159
f 145/145/145 147/147/147 158/158/158
f 160/160/160 159/159/159 149/149/149
f 161/161/161 158/158/158 159/159/159
f 161/161/161 159/159/159 162/162/162
f 163/163/163 162/162/162 159/159/159
f 164/164/164 165/165/165 159/159/159
f 166/166/166 159/159/159 165/165/165
f 164/164/164 159/159/159 167/167/167
f 168/168/168 167/167/167 159/159/159
f 168/168/168 159/159/159 160/160/160
f 163/163/163 159/159/159 166/166/166
f 160/160/160 149/149/149 148/148/148
f 169/169/169 151/151/151 170/170/170
f 169/169/169 152/152/152 151/151/151
f 171/171/171 172/172/172 153/153/153
f 162/162/162 173/173/173 172/172/172
f 162/162/162 172/172/172 171/171/171
f 154/154/154 171/171/171 153/153/153
f 174/174/174 170/170/170 173/173/173
f 175/175/175 170/170/170 174/174/174
f 176/176/176 170/170/170 177/177/177
f 175/175/175 177/177/177 170/170/170
f 178/178/178 170/170/170 176/176/176
f 179/179/179 169/169/169 170/170/170
f 179/179/179 170/170/170 178/178/178
f 174/174/174 173/173/173 162/162/162
f 174/174/174 162/162/162 163/163/163
f 156/156/156 180/180/180 181/181/181
f 182/182/182 181/181/181 167/167/167
f 156/156/156 181/181/181 182/182/182
f 183/183/183 165/165/165 184/184/184
f 183/183/183 166/166/166 165/165/165
f 185/185/185 184/184/184 180/180/180
f 186/186/186 184/184/184 185/185/185
f 187/187/187 184/184/184 186/186/186
f 188/188/188 184/184/184 187/187/187
f 189/189/189 184/184/184 188/188/188
f 190/190/190 184/184/184 189/189/189
f 183/183/183 184/184/184 190/190/190
f 185/185/185 180/180/180 156/156/156
f 168/168/168 182/182/182 167/167/167
f 185/185/185 156/156/156 157/157/157
f 186/186/186 185/185/185 191/191/191
f 192/192/192 191/191/191 152/152/152
f 186/186/186 191/191/191 192/192/192
f 188/188/188 192/192/192 152/152/152
f 189/189/189 188/188/188 152/152/152
f 189/189/189 152/152/152 169/169/169
f 193/193/193 194/194/194 166/166/166
f 175/175/175 174/174/174 194/194/194
f 175/175/175 194/194/194 193/193/193
f 193/193/193 166/166/166 176/176/176
f 178/178/178 176/176/176 166/166/166
f 178/178/178 166/166/166 183/183/183

