mtllib material.mtl
usemtl material_0
v -0.00347900 0.04874900 -0.04025200
v -0.00347900 0.04899900 -0.04025200
v -0.00239700 0.04899900 -0.03962700
v -0.00456200 0.04874900 -0.03962700
v -0.00456200 0.04899900 -0.03962700
v -0.00347900 0.04899900 -0.04025200
v -0.00347900 0.04874900 -0.04025200
v -0.00239700 0.04874900 -0.03962700
v -0.00239700 0.04899900 -0.03837700
v -0.00239700 0.04874900 -0.03837700
v -0.00347900 0.04899900 -0.03775200
v -0.00347900 0.04874900 -0.03775200
v -0.00347900 0.04899900 -0.03775200
v -0.00456200 0.04899900 -0.03837700
v -0.00347900 0.04874900 -0.03775200
v -0.00456200 0.04874900 -0.03837700
v -0.00456200 0.04874900 0.04737300
v -0.00456200 0.04899900 0.04737300
v -0.00347900 0.04899900 0.04674800
v -0.00347900 0.04874900 0.04674800
v -0.00239700 0.04899900 0.04737300
v -0.00347900 0.04874900 0.04674800
v -0.00347900 0.04899900 0.04674800
v -0.00456200 0.04874900 0.04862300
v -0.00456200 0.04899900 0.04862300
v -0.00347900 0.04874900 0.04924800
v -0.00347900 0.04899900 0.04924800
v -0.00239700 0.04874900 0.04862300
v -0.00347900 0.04899900 0.04924800
v -0.00347900 0.04874900 0.04924800
v -0.00239700 0.04899900 0.04862300
v -0.00347900 0.04749900 0.05049800
v -0.00347900 0.04874900 0.04924800
v -0.00456200 0.04874900 0.04862300
v -0.00171100 0.04749900 0.04976600
v -0.00239700 0.04874900 0.04862300
v -0.00347900 0.04874900 0.04924800
v -0.00347900 0.04749900 0.05049800
v -0.00597900 0.04749900 0.04799800
v -0.00456200 0.04874900 0.04737300
v -0.00524700 0.04749900 0.04976600
v -0.00524700 0.04749900 0.04623000
v -0.00347900 0.04874900 0.04674800
v -0.00239700 0.04874900 0.04737300
v -0.00347900 0.04749900 0.04549800
v -0.00347900 0.04874900 0.04674800
v -0.00239700 0.04874900 0.04737300
v -0.00347900 0.04749900 0.04549800
v -0.00222900 0.04724900 0.05016300
v -0.00222900 0.04724900 0.04583300
v -0.00097900 0.04724900 0.04799800
v -0.00097900 0.04749900 0.04799800
v -0.00097900 0.04724900 0.04799800
v -0.00222900 0.04724900 0.04583300
v -0.00171100 0.04749900 0.04976600
v -0.00222900 0.04724900 0.05016300
v -0.00097900 0.04724900 0.04799800
v -0.00097900 0.04749900 0.04799800
v -0.00422900 0.04724900 0.04756500
v -0.00472900 0.04724900 0.04583300
v -0.00347900 0.04749900 0.04549800
v -0.00472900 0.04724900 0.04583300
v -0.00272900 0.04724900 0.04843100
v -0.00272900 0.04724900 0.04756500
v -0.00347900 0.04724900 0.04713200
v -0.00171100 0.04749900 0.04623000
v -0.00472900 0.04724900 0.05016300
v -0.00597900 0.04724900 0.04799800
v -0.00524700 0.04749900 0.04623000
v -0.00597900 0.04724900 0.04799800
v -0.00597900 0.04749900 0.04799800
v -0.00597900 0.04724900 0.04799800
v -0.00472900 0.04724900 0.05016300
v -0.00597900 0.04749900 0.04799800
v -0.00347900 0.04749900 0.05049800
v -0.00347900 0.04724900 0.04886400
v -0.00422900 0.04724900 0.04843100
v -0.00524700 0.04749900 0.04976600
v -0.00272900 0.04924900 0.04843100
v -0.00272900 0.04724900 0.04756500
v -0.00272900 0.04724900 0.04843100
v -0.00272900 0.04924900 0.04756500
v -0.00347900 0.04724900 0.04713200
v -0.00272900 0.04724900 0.04756500
v -0.00272900 0.04924900 0.04756500
v -0.00347900 0.04924900 0.04886400
v -0.00272900 0.04724900 0.04843100
v -0.00347900 0.04724900 0.04886400
v -0.00272900 0.04924900 0.04843100
v -0.00422900 0.04924900 0.04843100
v -0.00347900 0.04724900 0.04886400
v -0.00422900 0.04724900 0.04843100
v -0.00347900 0.04924900 0.04886400
v -0.00422900 0.04924900 0.04756500
v -0.00422900 0.04724900 0.04843100
v -0.00422900 0.04724900 0.04756500
v -0.00422900 0.04924900 0.04843100
v -0.00347900 0.04924900 0.04713200
v -0.00422900 0.04724900 0.04756500
v -0.00347900 0.04724900 0.04713200
v -0.00422900 0.04924900 0.04756500
v -0.00347900 0.04924900 0.04713200
v -0.00097900 0.04749900 0.04799800
v -0.00171100 0.04749900 0.04623000
v -0.00422900 0.04924900 0.04756500
v -0.00347900 0.04924900 0.04713200
v -0.00272900 0.04924900 0.04756500
v -0.00272900 0.04924900 0.04843100
v -0.00422900 0.04924900 0.04843100
v -0.00347900 0.04924900 0.04886400
v -0.00347900 0.04749900 -0.03650200
v -0.00347900 0.04874900 -0.03775200
v -0.00456200 0.04874900 -0.03837700
v -0.00171100 0.04749900 -0.03723400
v -0.00239700 0.04874900 -0.03837700
v -0.00347900 0.04874900 -0.03775200
v -0.00347900 0.04749900 -0.03650200
v -0.00597900 0.04749900 -0.03900200
v -0.00456200 0.04874900 -0.03962700
v -0.00524700 0.04749900 -0.03723400
v -0.00524700 0.04749900 -0.04077000
v -0.00347900 0.04874900 -0.04025200
v -0.00347900 0.04749900 -0.04150200
v -0.00347900 0.04874900 -0.04025200
v -0.00239700 0.04874900 -0.03962700
v -0.00347900 0.04749900 -0.04150200
v -0.00222900 0.04724900 -0.03683700
v -0.00222900 0.04724900 -0.04116700
v -0.00097900 0.04724900 -0.03900200
v -0.00097900 0.04749900 -0.03900200
v -0.00097900 0.04724900 -0.03900200
v -0.00222900 0.04724900 -0.04116700
v -0.00171100 0.04749900 -0.03723400
v -0.00222900 0.04724900 -0.03683700
v -0.00097900 0.04724900 -0.03900200
v -0.00097900 0.04749900 -0.03900200
v -0.00422900 0.04724900 -0.03943500
v -0.00472900 0.04724900 -0.04116700
v -0.00347900 0.04749900 -0.04150200
v -0.00472900 0.04724900 -0.04116700
v -0.00272900 0.04724900 -0.03856900
v -0.00272900 0.04724900 -0.03943500
v -0.00347900 0.04724900 -0.03986800
v -0.00171100 0.04749900 -0.04077000
v -0.00472900 0.04724900 -0.03683700
v -0.00597900 0.04724900 -0.03900200
v -0.00524700 0.04749900 -0.04077000
v -0.00597900 0.04724900 -0.03900200
v -0.00597900 0.04749900 -0.03900200
v -0.00597900 0.04724900 -0.03900200
v -0.00472900 0.04724900 -0.03683700
v -0.00597900 0.04749900 -0.03900200
v -0.00347900 0.04749900 -0.03650200
v -0.00347900 0.04724900 -0.03813600
v -0.00422900 0.04724900 -0.03856900
v -0.00524700 0.04749900 -0.03723400
v -0.00272900 0.04924900 -0.03856900
v -0.00272900 0.04724900 -0.03943500
v -0.00272900 0.04724900 -0.03856900
v -0.00272900 0.04924900 -0.03943500
v -0.00347900 0.04724900 -0.03986800
v -0.00272900 0.04724900 -0.03943500
v -0.00272900 0.04924900 -0.03943500
v -0.00347900 0.04924900 -0.03813600
v -0.00272900 0.04724900 -0.03856900
v -0.00347900 0.04724900 -0.03813600
v -0.00272900 0.04924900 -0.03856900
v -0.00422900 0.04924900 -0.03856900
v -0.00347900 0.04724900 -0.03813600
v -0.00422900 0.04724900 -0.03856900
v -0.00347900 0.04924900 -0.03813600
v -0.00422900 0.04924900 -0.03943500
v -0.00422900 0.04724900 -0.03856900
v -0.00422900 0.04724900 -0.03943500
v -0.00422900 0.04924900 -0.03856900
v -0.00347900 0.04924900 -0.03986800
v -0.00422900 0.04724900 -0.03943500
v -0.00347900 0.04724900 -0.03986800
v -0.00422900 0.04924900 -0.03943500
v -0.00347900 0.04924900 -0.03986800
v -0.00097900 0.04749900 -0.03900200
v -0.00171100 0.04749900 -0.04077000
v -0.00422900 0.04924900 -0.03943500
v -0.00347900 0.04924900 -0.03986800
v -0.00272900 0.04924900 -0.03943500
v -0.00272900 0.04924900 -0.03856900
v -0.00422900 0.04924900 -0.03856900
v -0.00347900 0.04924900 -0.03813600
vn -0.00000000 0.00000000 -1.00000000
vn -0.00000000 0.00000000 -1.00000000
vn 0.86610000 0.00000000 -0.49990000
vn -0.86600000 -0.00000000 -0.50010000
vn -0.86600000 -0.00000000 -0.50010000
vn -0.00000000 0.00000000 -1.00000000
vn -0.00000000 0.00000000 -1.00000000
vn 0.86610000 0.00000000 -0.49990000
vn 0.86610000 0.00000000 0.49990000
vn 0.86610000 0.00000000 0.49990000
vn -0.00000000 0.00000000 1.00000000
vn -0.00000000 0.00000000 1.00000000
vn -0.00000000 0.00000000 1.00000000
vn -0.86600000 0.00000000 0.50010000
vn -0.00000000 0.00000000 1.00000000
vn -0.86600000 0.00000000 0.50010000
vn -0.86600000 -0.00000000 -0.50010000
vn -0.86600000 -0.00000000 -0.50010000
vn -0.00000000 0.00000000 -1.00000000
vn -0.00000000 0.00000000 -1.00000000
vn 0.86610000 0.00000000 -0.49990000
vn -0.00000000 0.00000000 -1.00000000
vn -0.00000000 0.00000000 -1.00000000
vn -0.86600000 0.00000000 0.50010000
vn -0.86600000 0.00000000 0.50010000
vn -0.00000000 0.00000000 1.00000000
vn -0.00000000 0.00000000 1.00000000
vn 0.86610000 0.00000000 0.49990000
vn -0.00000000 0.00000000 1.00000000
vn -0.00000000 0.00000000 1.00000000
vn 0.86610000 0.00000000 0.49990000
vn -0.00010000 0.70710000 0.70710000
vn -0.00010000 0.70710000 0.70710000
vn -0.61240000 0.70710000 0.35360000
vn 0.50000000 0.70710000 0.50000000
vn 0.61240000 0.70710000 0.35350000
vn 0.00000000 0.70710000 0.70710000
vn 0.00000000 0.70710000 0.70710000
vn -0.70710000 0.70710000 0.00000000
vn -0.61240000 0.70710000 -0.35350000
vn -0.50000000 0.70710000 0.50000000
vn -0.50000000 0.70710000 -0.50000000
vn -0.00010000 0.70710000 -0.70710000
vn 0.86610000 0.00000000 -0.49990000
vn -0.00000000 0.70710000 -0.70710000
vn -0.00000000 0.70710000 -0.70710000
vn 0.61240000 0.70710000 -0.35360000
vn -0.00010000 0.70710000 -0.70710000
vn 0.00000000 -1.00000000 -0.00000000
vn 0.00000000 -1.00000000 -0.00000000
vn 0.00000000 -1.00000000 -0.00000000
vn 1.00000000 0.00000000 0.00000000
vn 1.00000000 0.00000000 0.00000000
vn 0.50000000 -0.00000000 -0.86600000
vn 0.70710000 0.00000000 0.70710000
vn 0.50000000 0.00000000 0.86600000
vn 1.00000000 0.00000000 -0.00010000
vn 1.00000000 0.00000000 0.00000000
vn 0.00000000 -1.00000000 -0.00000000
vn 0.00000000 -1.00000000 -0.00000000
vn -0.00000000 0.00000000 -1.00000000
vn -0.50000000 -0.00000000 -0.86600000
vn 0.00000000 -1.00000000 -0.00000000
vn 0.00000000 -1.00000000 -0.00000000
vn 0.00000000 -1.00000000 -0.00000000
vn 0.70710000 0.00000000 -0.70710000
vn 0.00000000 -1.00000000 -0.00000000
vn 0.00000000 -1.00000000 -0.00000000
vn -0.70710000 -0.00000000 -0.70710000
vn -1.00000000 0.00000000 0.00010000
vn -1.00000000 0.00000000 -0.00010000
vn -1.00000000 -0.00000000 -0.00000000
vn -0.50000000 0.00000000 0.86600000
vn -1.00000000 -0.00000000 -0.00000000
vn -0.00000000 0.00000000 1.00000000
vn 0.00000000 -1.00000000 -0.00000000
vn 0.00000000 -1.00000000 -0.00000000
vn -0.70710000 0.00000000 0.70710000
vn -1.00000000 -0.00000000 -0.00000000
vn -1.00000000 -0.00000000 -0.00000000
vn -1.00000000 -0.00000000 -0.00000000
vn -0.50000000 0.00000000 0.86600000
vn -0.50000000 0.00000000 0.86600000
vn -0.50000000 0.00000000 0.86600000
vn -1.00000000 -0.00000000 -0.00000000
vn -0.50000000 -0.00000000 -0.86600000
vn -0.50000000 -0.00000000 -0.86600000
vn -0.50000000 -0.00000000 -0.86600000
vn -0.50000000 -0.00000000 -0.86600000
vn 0.50000000 -0.00000000 -0.86600000
vn 0.50000000 -0.00000000 -0.86600000
vn 0.50000000 -0.00000000 -0.86600000
vn 0.50000000 -0.00000000 -0.86600000
vn 1.00000000 0.00000000 0.00000000
vn 1.00000000 0.00000000 0.00000000
vn 1.00000000 0.00000000 0.00000000
vn 1.00000000 0.00000000 0.00000000
vn 0.50000000 0.00000000 0.86600000
vn 0.50000000 0.00000000 0.86600000
vn 0.50000000 0.00000000 0.86600000
vn 0.50000000 0.00000000 0.86600000
vn -0.50000000 0.00000000 0.86600000
vn 0.70710000 0.70710000 0.00000000
vn 0.50000000 0.70710000 -0.50000000
vn 0.00000000 -1.00000000 -0.00000000
vn 0.00000000 -1.00000000 -0.00000000
vn 0.00000000 -1.00000000 -0.00000000
vn 0.00000000 -1.00000000 -0.00000000
vn 0.00000000 -1.00000000 -0.00000000
vn 0.00000000 -1.00000000 -0.00000000
vn -0.00010000 0.70710000 0.70710000
vn -0.00010000 0.70710000 0.70710000
vn -0.61240000 0.70710000 0.35360000
vn 0.50000000 0.70710000 0.50000000
vn 0.61240000 0.70710000 0.35350000
vn 0.00000000 0.70710000 0.70710000
vn 0.00000000 0.70710000 0.70710000
vn -0.70710000 0.70710000 0.00000000
vn -0.61240000 0.70710000 -0.35350000
vn -0.50000000 0.70710000 0.50000000
vn -0.50000000 0.70710000 -0.50000000
vn -0.00000000 0.70710000 -0.70710000
vn -0.00000000 0.70710000 -0.70710000
vn -0.00000000 0.70710000 -0.70710000
vn 0.61240000 0.70710000 -0.35360000
vn -0.00000000 0.70710000 -0.70710000
vn 0.00000000 -1.00000000 -0.00000000
vn 0.00000000 -1.00000000 -0.00000000
vn 0.00000000 -1.00000000 -0.00000000
vn 1.00000000 0.00010000 -0.00000000
vn 1.00000000 0.00000000 0.00000000
vn 0.50000000 -0.00000000 -0.86600000
vn 0.70710000 0.00000000 0.70710000
vn 0.50000000 0.00000000 0.86610000
vn 1.00000000 0.00000000 -0.00010000
vn 1.00000000 0.00000000 0.00000000
vn 0.00000000 -1.00000000 -0.00000000
vn 0.00000000 -1.00000000 -0.00000000
vn -0.00000000 0.00000000 -1.00000000
vn -0.50000000 -0.00000000 -0.86600000
vn 0.00000000 -1.00000000 -0.00000000
vn 0.00000000 -1.00000000 -0.00000000
vn 0.00000000 -1.00000000 -0.00000000
vn 0.70710000 0.00000000 -0.70710000
vn 0.00000000 -1.00000000 -0.00000000
vn 0.00000000 -1.00000000 -0.00000000
vn -0.70710000 -0.00000000 -0.70710000
vn -1.00000000 0.00000000 0.00010000
vn -1.00000000 0.00000000 -0.00010000
vn -1.00000000 -0.00000000 -0.00000000
vn -0.50000000 0.00000000 0.86600000
vn -1.00000000 -0.00000000 -0.00000000
vn -0.00000000 0.00000000 1.00000000
vn 0.00000000 -1.00000000 -0.00000000
vn 0.00000000 -1.00000000 -0.00000000
vn -0.70710000 0.00000000 0.70710000
vn -1.00000000 -0.00000000 -0.00000000
vn -1.00000000 -0.00000000 -0.00000000
vn -1.00000000 -0.00000000 -0.00000000
vn -0.50000000 0.00000000 0.86600000
vn -0.50000000 0.00000000 0.86600000
vn -0.50000000 0.00000000 0.86600000
vn -1.00000000 -0.00000000 -0.00000000
vn -0.50000000 -0.00000000 -0.86600000
vn -0.50000000 -0.00000000 -0.86600000
vn -0.50000000 -0.00000000 -0.86600000
vn -0.50000000 -0.00000000 -0.86600000
vn 0.50000000 -0.00000000 -0.86600000
vn 0.50000000 -0.00000000 -0.86600000
vn 0.50000000 -0.00000000 -0.86600000
vn 0.50000000 -0.00000000 -0.86600000
vn 1.00000000 0.00000000 0.00000000
vn 1.00000000 0.00000000 0.00000000
vn 1.00000000 0.00000000 0.00000000
vn 1.00000000 0.00000000 0.00000000
vn 0.50000000 0.00000000 0.86600000
vn 0.50000000 0.00000000 0.86600000
vn 0.50000000 0.00000000 0.86600000
vn 0.50000000 0.00000000 0.86600000
vn -0.50000000 0.00000000 0.86600000
vn 0.70710000 0.70710000 0.00000000
vn 0.50000000 0.70710000 -0.50000000
vn 0.00000000 -1.00000000 -0.00000000
vn 0.00000000 -1.00000000 -0.00000000
vn 0.00000000 -1.00000000 -0.00000000
vn 0.00000000 -1.00000000 -0.00000000
vn 0.00000000 -1.00000000 -0.00000000
vn 0.00000000 -1.00000000 -0.00000000
vt 0.76134200 0.28064600
vt 0.76128400 0.28144000
vt 0.75778100 0.28367400
vt 0.76485200 0.28337000
vt 0.76477700 0.28415900
vt 0.76128400 0.28144000
vt 0.76134200 0.28064600
vt 0.75782100 0.28287900
vt 0.75778100 0.28864400
vt 0.75782100 0.28785500
vt 0.76128400 0.29137900
vt 0.76134200 0.29059600
vt 0.76128400 0.29137900
vt 0.76477700 0.28912600
vt 0.76134200 0.29059600
vt 0.76485200 0.28834300
vt 0.76485200 0.74478900
vt 0.76477700 0.74398200
vt 0.76128400 0.74215700
vt 0.76134200 0.74296600
vt 0.75778100 0.74447900
vt 0.76134200 0.74296600
vt 0.76128400 0.74215700
vt 0.76485200 0.74893400
vt 0.76477700 0.74812700
vt 0.76134200 0.75125700
vt 0.76128400 0.75044600
vt 0.75782100 0.74943600
vt 0.76128400 0.75044600
vt 0.76134200 0.75125700
vt 0.75778100 0.74862300
vt 0.76163900 0.75935500
vt 0.76134200 0.75125700
vt 0.76485200 0.74893400
vt 0.75573400 0.75735500
vt 0.75782100 0.74943600
vt 0.76134200 0.75125700
vt 0.76163900 0.75935500
vt 0.76993200 0.75045200
vt 0.76485200 0.74478900
vt 0.76751200 0.75649400
vt 0.76751200 0.74476600
vt 0.76134200 0.74296600
vt 0.75782100 0.74529100
vt 0.76163900 0.74276500
vt 0.76134200 0.74296600
vt 0.75782100 0.74529100
vt 0.76163900 0.74276500
vt 0.75750600 0.75938400
vt 0.75750600 0.74502000
vt 0.75330000 0.75250900
vt 0.75328300 0.75167000
vt 0.75330000 0.75250900
vt 0.75750600 0.74502000
vt 0.75573400 0.75735500
vt 0.75750600 0.75938400
vt 0.75330000 0.75250900
vt 0.75328300 0.75167000
vt 0.76421000 0.75046600
vt 0.76587900 0.74440400
vt 0.76163900 0.74276500
vt 0.76587900 0.74440400
vt 0.75918500 0.75370800
vt 0.75918500 0.75083600
vt 0.76170100 0.74921500
vt 0.75573400 0.74562700
vt 0.76587900 0.75876900
vt 0.77003600 0.75127900
vt 0.76751200 0.74476600
vt 0.77003600 0.75127900
vt 0.76993200 0.75045200
vt 0.77003600 0.75127900
vt 0.76587900 0.75876900
vt 0.76993200 0.75045200
vt 0.76163900 0.75935500
vt 0.76170100 0.75495900
vt 0.76421000 0.75333800
vt 0.76751200 0.75649400
vt 0.75881300 0.74713000
vt 0.75918500 0.75083600
vt 0.75918500 0.75370800
vt 0.75881300 0.74425900
vt 0.76170100 0.74921500
vt 0.75918500 0.75083600
vt 0.75881300 0.74425900
vt 0.76122700 0.74839400
vt 0.75918500 0.75370800
vt 0.76170100 0.75495900
vt 0.75881300 0.74713000
vt 0.76363600 0.74678900
vt 0.76170100 0.75495900
vt 0.76421000 0.75333800
vt 0.76122700 0.74839400
vt 0.76363600 0.74391800
vt 0.76421000 0.75333800
vt 0.76421000 0.75046600
vt 0.76363600 0.74678900
vt 0.76122700 0.74265200
vt 0.76421000 0.75046600
vt 0.76170100 0.74921500
vt 0.76363600 0.74391800
vt 0.76122700 0.74265200
vt 0.75328300 0.75167000
vt 0.75573400 0.74562700
vt 0.76363600 0.74391800
vt 0.76122700 0.74265200
vt 0.75881300 0.74425900
vt 0.75881300 0.74713000
vt 0.76363600 0.74678900
vt 0.76122700 0.74839400
vt 0.76163900 0.29180100
vt 0.76134200 0.29059600
vt 0.76485200 0.28834300
vt 0.75573400 0.28842700
vt 0.75782100 0.28785500
vt 0.76134200 0.29059600
vt 0.76163900 0.29180100
vt 0.76993200 0.28234500
vt 0.76485200 0.28337000
vt 0.76751200 0.28926300
vt 0.76751200 0.27512400
vt 0.76134200 0.28064600
vt 0.76163900 0.27178700
vt 0.76134200 0.28064600
vt 0.75782100 0.28287900
vt 0.76163900 0.27178700
vt 0.75750600 0.28934000
vt 0.75750600 0.27198600
vt 0.75330000 0.28032800
vt 0.75328300 0.28115200
vt 0.75330000 0.28032800
vt 0.75750600 0.27198600
vt 0.75573400 0.28842700
vt 0.75750600 0.28934000
vt 0.75330000 0.28032800
vt 0.75328300 0.28115200
vt 0.76421000 0.27919200
vt 0.76587900 0.27259600
vt 0.76163900 0.27178700
vt 0.76587900 0.27259600
vt 0.75918500 0.28229700
vt 0.75918500 0.27882800
vt 0.76170100 0.27727900
vt 0.75573400 0.27427200
vt 0.76587900 0.28993800
vt 0.77003600 0.28153500
vt 0.76751200 0.27512400
vt 0.77003600 0.28153500
vt 0.76993200 0.28234500
vt 0.77003600 0.28153500
vt 0.76587900 0.28993800
vt 0.76993200 0.28234500
vt 0.76163900 0.29180100
vt 0.76170100 0.28421700
vt 0.76421000 0.28266000
vt 0.76751200 0.28926300
vt 0.75881300 0.28871200
vt 0.75918500 0.27882800
vt 0.75918500 0.28229700
vt 0.75881300 0.28527200
vt 0.76170100 0.27727900
vt 0.75918500 0.27882800
vt 0.75881300 0.28527200
vt 0.76122700 0.29060100
vt 0.75918500 0.28229700
vt 0.76170100 0.28421700
vt 0.75881300 0.28871200
vt 0.76363600 0.28904200
vt 0.76170100 0.28421700
vt 0.76421000 0.28266000
vt 0.76122700 0.29060100
vt 0.76363600 0.28560500
vt 0.76421000 0.28266000
vt 0.76421000 0.27919200
vt 0.76363600 0.28904200
vt 0.76122700 0.28372300
vt 0.76421000 0.27919200
vt 0.76170100 0.27727900
vt 0.76363600 0.28560500
vt 0.76122700 0.28372300
vt 0.75328300 0.28115200
vt 0.75573400 0.27427200
vt 0.76363600 0.28560500
vt 0.76122700 0.28372300
vt 0.75881300 0.28527200
vt 0.75881300 0.28871200
vt 0.76363600 0.28904200
vt 0.76122700 0.29060100
f 1/1/1 2/2/2 3/3/3
f 4/4/4 5/5/5 6/6/6
f 7/7/7 4/4/4 6/6/6
f 8/8/8 3/3/3 9/9/9
f 8/8/8 1/1/1 3/3/3
f 10/10/10 9/9/9 11/11/11
f 10/10/10 8/8/8 9/9/9
f 12/12/12 13/13/13 14/14/14
f 10/10/10 11/11/11 15/15/15
f 16/16/16 14/14/14 5/5/5
f 16/16/16 12/12/12 14/14/14
f 4/4/4 16/16/16 5/5/5
f 17/17/17 18/18/18 19/19/19
f 20/20/20 17/17/17 19/19/19
f 21/21/21 22/22/22 23/23/23
f 24/24/24 25/25/25 18/18/18
f 17/17/17 24/24/24 18/18/18
f 26/26/26 27/27/27 25/25/25
f 24/24/24 26/26/26 25/25/25
f 28/28/28 29/29/29 30/30/30
f 28/28/28 31/31/31 29/29/29
f 32/32/32 33/33/33 34/34/34
f 35/35/35 36/36/36 37/37/37
f 35/35/35 37/37/37 38/38/38
f 39/39/39 34/34/34 40/40/40
f 41/41/41 32/32/32 34/34/34
f 39/39/39 41/41/41 34/34/34
f 42/42/42 40/40/40 43/43/43
f 42/42/42 39/39/39 40/40/40
f 44/44/44 22/22/22 21/21/21
f 45/45/45 46/46/46 47/47/47
f 48/48/48 42/42/42 43/43/43
f 49/49/49 50/50/50 51/51/51
f 52/52/52 53/53/53 54/54/54
f 55/55/55 56/56/56 57/57/57
f 55/55/55 57/57/57 58/58/58
f 59/59/59 60/60/60 50/50/50
f 61/61/61 54/54/54 62/62/62
f 63/63/63 50/50/50 49/49/49
f 63/63/63 64/64/64 50/50/50
f 65/65/65 50/50/50 64/64/64
f 65/65/65 59/59/59 50/50/50
f 66/66/66 54/54/54 61/61/61
f 66/66/66 52/52/52 54/54/54
f 67/67/67 68/68/68 60/60/60
f 69/69/69 62/62/62 70/70/70
f 59/59/59 67/67/67 60/60/60
f 61/61/61 62/62/62 69/69/69
f 71/71/71 72/72/72 73/73/73
f 69/69/69 70/70/70 74/74/74
f 63/63/63 49/49/49 67/67/67
f 75/75/75 73/73/73 56/56/56
f 76/76/76 63/63/63 67/67/67
f 77/77/77 76/76/76 67/67/67
f 59/59/59 77/77/77 67/67/67
f 78/78/78 73/73/73 75/75/75
f 71/71/71 73/73/73 78/78/78
f 55/55/55 75/75/75 56/56/56
f 79/79/79 80/80/80 81/81/81
f 82/82/82 83/83/83 84/84/84
f 79/79/79 85/85/85 80/80/80
f 86/86/86 87/87/87 88/88/88
f 89/89/89 87/87/87 86/86/86
f 90/90/90 91/91/91 92/92/92
f 93/93/93 91/91/91 90/90/90
f 94/94/94 95/95/95 96/96/96
f 97/97/97 95/95/95 94/94/94
f 98/98/98 99/99/99 100/100/100
f 101/101/101 99/99/99 98/98/98
f 102/102/102 83/83/83 82/82/82
f 44/44/44 21/21/21 31/31/31
f 28/28/28 44/44/44 31/31/31
f 103/103/103 47/47/47 36/36/36
f 104/104/104 45/45/45 47/47/47
f 104/104/104 47/47/47 103/103/103
f 35/35/35 103/103/103 36/36/36
f 105/105/105 106/106/106 107/107/107
f 108/108/108 105/105/105 107/107/107
f 108/108/108 109/109/109 105/105/105
f 108/108/108 110/110/110 109/109/109
f 111/111/111 112/112/112 113/113/113
f 114/114/114 115/115/115 116/116/116
f 114/114/114 116/116/116 117/117/117
f 118/118/118 113/113/113 119/119/119
f 120/120/120 111/111/111 113/113/113
f 118/118/118 120/120/120 113/113/113
f 121/121/121 119/119/119 122/122/122
f 121/121/121 118/118/118 119/119/119
f 123/123/123 124/124/124 125/125/125
f 126/126/126 121/121/121 122/122/122
f 127/127/127 128/128/128 129/129/129
f 130/130/130 131/131/131 132/132/132
f 133/133/133 134/134/134 135/135/135
f 133/133/133 135/135/135 136/136/136
f 137/137/137 138/138/138 128/128/128
f 139/139/139 132/132/132 140/140/140
f 141/141/141 128/128/128 127/127/127
f 141/141/141 142/142/142 128/128/128
f 143/143/143 128/128/128 142/142/142
f 143/143/143 137/137/137 128/128/128
f 144/144/144 132/132/132 139/139/139
f 144/144/144 130/130/130 132/132/132
f 145/145/145 146/146/146 138/138/138
f 147/147/147 140/140/140 148/148/148
f 137/137/137 145/145/145 138/138/138
f 139/139/139 140/140/140 147/147/147
f 149/149/149 150/150/150 151/151/151
f 147/147/147 148/148/148 152/152/152
f 141/141/141 127/127/127 145/145/145
f 153/153/153 151/151/151 134/134/134
f 154/154/154 141/141/141 145/145/145
f 155/155/155 154/154/154 145/145/145
f 137/137/137 155/155/155 145/145/145
f 156/156/156 151/151/151 153/153/153
f 149/149/149 151/151/151 156/156/156
f 133/133/133 153/153/153 134/134/134
f 157/157/157 158/158/158 159/159/159
f 160/160/160 161/161/161 162/162/162
f 157/157/157 163/163/163 158/158/158
f 164/164/164 165/165/165 166/166/166
f 167/167/167 165/165/165 164/164/164
f 168/168/168 169/169/169 170/170/170
f 171/171/171 169/169/169 168/168/168
f 172/172/172 173/173/173 174/174/174
f 175/175/175 173/173/173 172/172/172
f 176/176/176 177/177/177 178/178/178
f 179/179/179 177/177/177 176/176/176
f 180/180/180 161/161/161 160/160/160
f 181/181/181 125/125/125 115/115/115
f 182/182/182 123/123/123 125/125/125
f 182/182/182 125/125/125 181/181/181
f 114/114/114 181/181/181 115/115/115
f 183/183/183 184/184/184 185/185/185
f 186/186/186 183/183/183 185/185/185
f 186/186/186 187/187/187 183/183/183
f 186/186/186 188/188/188 187/187/187

