####
#
# OBJ File Generated by Meshlab
#
####
# Object 7a30000_plattform_display.obj
#
# Vertices: 52
# Faces: 34
#
####
mtllib ./7a30000_plattform_display.obj.mtl

vn 0.2241224 0.9659205 0.1294864
v 0.3329400 0.3741420 0.0750210
vn 0.2241567 0.9659339 0.1293274
v 0.2180100 0.4090830 0.0132850
vn 0.2241935 0.9659200 0.1293674
v 0.3242480 0.3762130 0.0746210
vn 0.2241304 0.9659196 0.1294795
v 0.2267480 0.3762130 0.2434960
vn 0.2241224 0.9659335 0.1293894
v 0.1118180 0.4111530 0.1817600
vn 0.2240771 0.9659340 0.1294645
v 0.1205100 0.4090830 0.1821600
vn 0.2241199 0.9659337 0.1293920
v 0.2133180 0.4111530 0.0059569
vn 0.2241903 0.9659203 0.1293706
v 0.2314400 0.3741420 0.2508240
vn 0.2241090 0.9659272 0.1294603
v 0.2157120 0.4108500 0.0040730
vn 0.2240940 0.9659273 0.1294851
v 0.3315940 0.3751780 0.0696250
vn 0.2240629 0.9659270 0.1295410
v 0.2186640 0.4101180 0.0044250
vn 0.2240417 0.9659265 0.1295814
v 0.3333740 0.3744460 0.0720050
vn 0.2241775 0.9659263 0.1293479
v 0.1113840 0.4108500 0.1847749
vn 0.2242303 0.9659268 0.1292531
v 0.2290450 0.3744460 0.2527070
vn 0.2241711 0.9659268 0.1293555
v 0.1131640 0.4101180 0.1871560
vn 0.2242249 0.9659268 0.1292625
v 0.2260940 0.3751780 0.2523560
vn -0.4994847 0.0022008 0.8663200
v 0.3242250 0.3761160 0.0746080
vn -0.4994842 0.0022028 0.8663202
v 0.3242480 0.3762130 0.0746210
vn -0.5005825 -0.0025164 0.8656852
v 0.2180100 0.4090830 0.0132850
vn -0.8355854 0.2627985 -0.4824252
v 0.2267250 0.3761160 0.2434830
vn -0.8355854 0.2627985 -0.4824251
v 0.2267480 0.3762130 0.2434960
vn -0.8356500 0.2625240 -0.4824627
v 0.3242480 0.3762130 0.0746210
vn -0.8356500 0.2625239 -0.4824627
v 0.3242250 0.3761160 0.0746080
vn 0.8374696 -0.2546759 0.4835131
v 0.2179880 0.4089860 0.0132720
vn 0.8374696 -0.2546759 0.4835131
v 0.2180100 0.4090830 0.0132850
vn 0.8374610 -0.2547136 0.4835082
v 0.1205100 0.4090830 0.1821600
vn -0.5005829 -0.0025185 0.8656849
v 0.2179880 0.4089860 0.0132720
vn 0.5005952 0.0025870 -0.8656777
v 0.1204880 0.4089860 0.1821470
vn 0.5005957 0.0025894 -0.8656774
v 0.1205100 0.4090830 0.1821600
vn 0.4994531 -0.0024048 -0.8663376
v 0.2267480 0.3762130 0.2434960
vn 0.8374610 -0.2547136 0.4835082
v 0.1204880 0.4089860 0.1821470
vn 0.4994526 -0.0024070 -0.8663379
v 0.2267250 0.3761160 0.2434830
vn 0.2243365 0.9659190 0.1291268
v 0.1575300 0.3913180 0.2127709
vn 0.2243415 0.9659189 0.1291185
v 0.1575800 0.3913180 0.2126840
vn 0.2238216 0.9659227 0.1299897
v 0.1519760 0.3930520 0.2094489
vn 0.2238166 0.9659227 0.1299980
v 0.1519260 0.3930520 0.2095350
vn -0.2243767 -0.9659323 -0.1289574
v 0.1519590 0.3931970 0.2095550
vn -0.2243818 -0.9659323 -0.1289484
v 0.1520090 0.3931970 0.2094680
vn -0.2238538 -0.9659281 -0.1298940
v 0.1576139 0.3914630 0.2127040
vn -0.2238488 -0.9659281 -0.1299030
v 0.1575640 0.3914630 0.2127900
vn 0.4993591 -0.0029619 -0.8663900
v 0.1575300 0.3913180 0.2127709
vn 0.4993842 -0.0028443 -0.8663760
v 0.1575640 0.3914630 0.2127900
vn 0.5010723 0.0051655 -0.8653900
v 0.1519260 0.3930520 0.2095350
vn 0.5010968 0.0052830 -0.8653751
v 0.1519590 0.3931970 0.2095550
vn -0.5000398 -0.0003528 0.8660024
v 0.1520090 0.3931970 0.2094680
vn -0.5000323 -0.0003236 0.8660067
v 0.1519760 0.3930520 0.2094489
vn -0.5005398 -0.0023359 0.8657103
v 0.1575800 0.3913180 0.2126840
vn -0.5005472 -0.0023650 0.8657060
v 0.1576139 0.3914630 0.2127040
vn 0.2241448 0.9659256 0.1294100
v 0.1204880 0.4089860 0.1821470
vn 0.2241448 0.9659256 0.1294101
v 0.2267250 0.3761160 0.2434830
vn 0.2241448 0.9659256 0.1294100
v 0.3242250 0.3761160 0.0746080
vn 0.2241448 0.9659256 0.1294100
v 0.2179880 0.4089860 0.0132720
# 52 vertices, 0 vertices normals


usemtl material_0
vt 0.0000000 0.0000000
f 1/1/1 2/1/2 3/1/3
f 1/1/1 3/1/3 4/1/4
f 5/1/5 6/1/6 2/1/2
f 7/1/7 2/1/2 1/1/1
f 7/1/7 5/1/5 2/1/2
f 5/1/5 4/1/4 6/1/6
f 8/1/8 1/1/1 4/1/4
f 5/1/5 8/1/8 4/1/4
f 9/1/9 10/1/10 11/1/11
f 9/1/9 12/1/12 10/1/10
f 7/1/7 1/1/1 12/1/12
f 9/1/9 7/1/7 12/1/12
f 13/1/13 14/1/14 8/1/8
f 5/1/5 13/1/13 8/1/8
f 15/1/15 16/1/16 14/1/14
f 13/1/13 15/1/15 14/1/14
f 17/1/17 18/1/18 19/1/19
f 20/1/20 21/1/21 22/1/22
f 20/1/20 22/1/22 23/1/23
f 24/1/24 25/1/25 26/1/26
f 27/1/27 17/1/17 19/1/19
f 28/1/28 29/1/29 30/1/30
f 24/1/24 26/1/26 31/1/31
f 28/1/28 30/1/30 32/1/32
f 33/1/33 34/1/34 35/1/35
f 36/1/36 33/1/33 35/1/35
f 37/1/37 38/1/38 39/1/39
f 37/1/37 39/1/39 40/1/40
f 42/1/42 41/1/41 43/1/43
f 44/1/44 42/1/42 43/1/43
f 45/1/45 46/1/46 47/1/47
f 45/1/45 47/1/47 48/1/48
vt -0.0214569 0.9949420
vt -0.0215060 -0.0048720
vt 1.0161250 0.0010110
f 49/2/49 50/3/50 51/4/51
vt 1.0175290 0.9976090
f 52/5/52 49/2/49 51/4/51
# 34 faces, 5 coords texture

# End of File
