mtllib material.mtl
usemtl material_0
v -0.08861700 0.34650000 -0.21720900
v -0.15816000 0.34650000 -0.25736000
v -0.16034500 0.34650000 -0.25677400
v -0.16034500 0.34490000 -0.25677400
v -0.16034500 0.34650000 -0.25677400
v -0.15816000 0.34650000 -0.25736000
v -0.21985900 0.34650000 -0.18819300
v -0.16093000 0.34650000 -0.25895900
v -0.16093000 0.34490000 -0.25895900
v -0.16093000 0.34650000 -0.25895900
v -0.16034500 0.34650000 -0.25677400
v -0.08803200 0.34650000 -0.21502400
v -0.16334000 0.34650000 -0.21508600
v -0.16589100 0.34650000 -0.21508600
v -0.16034500 0.34490000 -0.25677400
v -0.08643200 0.34650000 -0.21779500
v -0.15874500 0.34650000 -0.25954500
v -0.15816000 0.34490000 -0.25736000
v -0.15874500 0.34650000 -0.25954500
v -0.17085900 0.34650000 -0.27306300
v -0.15874500 0.34490000 -0.25954500
v -0.15874500 0.34650000 -0.25954500
v -0.06866800 0.34650000 -0.21406300
v -0.15874500 0.34490000 -0.25954500
v -0.08584700 0.34650000 -0.21561000
v -0.08803200 0.34490000 -0.21502400
v -0.08803200 0.34650000 -0.21502400
v -0.08584700 0.34650000 -0.21561000
v -0.08861700 0.34490000 -0.21720900
v -0.08861700 0.34650000 -0.21720900
v -0.08803200 0.34650000 -0.21502400
v -0.08803200 0.34490000 -0.21502400
v -0.08584700 0.34490000 -0.21561000
v -0.08643200 0.34650000 -0.21779500
v -0.08643200 0.34490000 -0.21779500
v -0.08643200 0.34650000 -0.21779500
v -0.08643200 0.34490000 -0.21779500
v -0.13036700 0.34650000 -0.14489600
v -0.19991000 0.34650000 -0.18504700
v -0.20209500 0.34650000 -0.18446100
v -0.20209500 0.34490000 -0.18446100
v -0.20209500 0.34650000 -0.18446100
v -0.19991000 0.34650000 -0.18504700
v -0.20268000 0.34650000 -0.18664600
v -0.20268000 0.34490000 -0.18664600
v -0.20268000 0.34650000 -0.18664600
v -0.20209500 0.34650000 -0.18446100
v -0.12978200 0.34650000 -0.14271100
v -0.20209500 0.34490000 -0.18446100
v -0.12818200 0.34650000 -0.14548200
v -0.20049500 0.34650000 -0.18723200
v -0.19991000 0.34490000 -0.18504700
v -0.20049500 0.34650000 -0.18723200
v -0.20049500 0.34490000 -0.18723200
v -0.20049500 0.34650000 -0.18723200
v -0.16334000 0.34650000 -0.21067000
v -0.16589000 0.34650000 -0.21067000
v -0.20049500 0.34490000 -0.18723200
v -0.11766800 0.34650000 -0.12919300
v -0.12759700 0.34650000 -0.14329700
v -0.12978200 0.34490000 -0.14271100
v -0.12978200 0.34650000 -0.14271100
v -0.12759700 0.34650000 -0.14329700
v -0.13036700 0.34490000 -0.14489600
v -0.13036700 0.34650000 -0.14489600
v -0.12978200 0.34650000 -0.14271100
v -0.12978200 0.34490000 -0.14271100
v -0.12759700 0.34490000 -0.14329700
v -0.12818200 0.34650000 -0.14548200
v -0.12818200 0.34490000 -0.14548200
v -0.12818200 0.34650000 -0.14548200
v -0.12818200 0.34490000 -0.14548200
v -0.07220300 0.34650000 -0.22794000
v -0.15707400 0.34650000 -0.27694000
v -0.17085900 0.34490000 -0.27306300
v -0.17085900 0.34650000 -0.27306300
v -0.15707400 0.34650000 -0.27694000
v -0.21985900 0.34490000 -0.18819300
v -0.21985900 0.34650000 -0.18819300
v -0.17085900 0.34650000 -0.27306300
v -0.17085900 0.34490000 -0.27306300
v -0.15707400 0.34490000 -0.27694000
v -0.15707400 0.34650000 -0.27694000
v -0.07220300 0.34650000 -0.22794000
v -0.15707400 0.34490000 -0.27694000
v -0.07220300 0.34490000 -0.22794000
v -0.07220300 0.34650000 -0.22794000
v -0.06866800 0.34650000 -0.21406300
v -0.07220300 0.34490000 -0.22794000
v -0.06866800 0.34490000 -0.21406300
v -0.06866800 0.34650000 -0.21406300
v -0.11766800 0.34650000 -0.12919300
v -0.16206600 0.34650000 -0.21287700
v -0.06866800 0.34490000 -0.21406300
v -0.21632400 0.34650000 -0.17431600
v -0.13145300 0.34650000 -0.12531600
v -0.11766800 0.34490000 -0.12919300
v -0.11766800 0.34650000 -0.12919300
v -0.13145300 0.34650000 -0.12531600
v -0.11766800 0.34490000 -0.12919300
v -0.13145300 0.34490000 -0.12531600
v -0.13145300 0.34650000 -0.12531600
v -0.21632400 0.34650000 -0.17431600
v -0.13145300 0.34490000 -0.12531600
v -0.21632400 0.34490000 -0.17431600
v -0.21632400 0.34650000 -0.17431600
v -0.21985900 0.34650000 -0.18819300
v -0.21632400 0.34490000 -0.17431600
v -0.16716500 0.34650000 -0.21287900
v -0.21985900 0.34490000 -0.18819300
v -0.16589000 0.35700000 -0.21067000
v -0.16589000 0.34650000 -0.21067000
v -0.16334000 0.34650000 -0.21067000
v -0.16716500 0.35700000 -0.21287700
v -0.16716500 0.34650000 -0.21287900
v -0.16589000 0.34650000 -0.21067000
v -0.16589000 0.35700000 -0.21067000
v -0.16334100 0.35700000 -0.21066900
v -0.16206600 0.34650000 -0.21287700
v -0.16206600 0.35700000 -0.21287900
v -0.16334000 0.34650000 -0.21508600
v -0.16334000 0.35700000 -0.21508600
v -0.16334000 0.34650000 -0.21508600
v -0.16589100 0.34650000 -0.21508600
v -0.16334000 0.35700000 -0.21508600
v -0.16588900 0.35700000 -0.21508600
v -0.17085900 0.34490000 -0.27306300
v -0.16093000 0.34490000 -0.25895900
v -0.16034500 0.34490000 -0.25677400
v -0.08803200 0.34490000 -0.21502400
v -0.15816000 0.34490000 -0.25736000
v -0.11596400 0.34490000 -0.17214500
v -0.15874500 0.34490000 -0.25954500
v -0.08861700 0.34490000 -0.21720900
v -0.08643200 0.34490000 -0.21779500
v -0.11766800 0.34490000 -0.12919300
v -0.08584700 0.34490000 -0.21561000
v -0.06866800 0.34490000 -0.21406300
v -0.21985900 0.34490000 -0.18819300
v -0.20268000 0.34490000 -0.18664600
v -0.20209500 0.34490000 -0.18446100
v -0.12978200 0.34490000 -0.14271100
v -0.19991000 0.34490000 -0.18504700
v -0.20049500 0.34490000 -0.18723200
v -0.13036700 0.34490000 -0.14489600
v -0.12818200 0.34490000 -0.14548200
v -0.15052400 0.34490000 -0.16288400
v -0.12759700 0.34490000 -0.14329700
v -0.12861400 0.34490000 -0.15023400
v -0.15707400 0.34490000 -0.27694000
v -0.13787400 0.34490000 -0.18479500
v -0.13145300 0.34490000 -0.12531600
v -0.21632400 0.34490000 -0.17431600
v -0.07220300 0.34490000 -0.22794000
v -0.11596400 0.31900000 -0.17214500
v -0.13787400 0.34490000 -0.18479500
v -0.11596400 0.34490000 -0.17214500
v -0.13787400 0.31900000 -0.18479500
v -0.15052400 0.34490000 -0.16288400
v -0.13787400 0.34490000 -0.18479500
v -0.13787400 0.31900000 -0.18479500
v -0.12861400 0.31900000 -0.15023400
v -0.11596400 0.34490000 -0.17214500
v -0.12861400 0.34490000 -0.15023400
v -0.11596400 0.31900000 -0.17214500
v -0.15052400 0.31900000 -0.16288400
v -0.12861400 0.34490000 -0.15023400
v -0.15052400 0.34490000 -0.16288400
v -0.12861400 0.31900000 -0.15023400
v -0.15052400 0.31900000 -0.16288400
v -0.12861400 0.31900000 -0.15023400
v -0.15052400 0.31900000 -0.16288400
v -0.13787400 0.31900000 -0.18479500
v -0.11596400 0.31900000 -0.17214500
v -0.16334100 0.35700000 -0.21066900
v -0.16716500 0.35700000 -0.21287700
v -0.16589000 0.35700000 -0.21067000
v -0.16206600 0.35700000 -0.21287900
v -0.16588900 0.35700000 -0.21508600
v -0.16334000 0.35700000 -0.21508600
vn 0.00000000 1.00000000 0.00000000
vn 0.00000000 1.00000000 0.00000000
vn 0.00000000 1.00000000 0.00000000
vn 0.50000000 0.00000000 -0.86600000
vn 0.50010000 0.00000000 -0.86600000
vn -0.86600000 0.00000000 -0.50000000
vn 0.00000000 1.00000000 0.00000000
vn 0.00000000 1.00000000 0.00000000
vn 0.86600000 0.00000000 0.50000000
vn 0.86600000 0.00000000 0.50000000
vn 0.50000000 0.00000000 -0.86600000
vn 0.00000000 1.00000000 0.00000000
vn 0.00000000 1.00000000 0.00000000
vn 0.00000000 1.00000000 0.00000000
vn 0.50000000 0.00000000 -0.86600000
vn 0.00000000 1.00000000 0.00000000
vn 0.00000000 1.00000000 0.00000000
vn -0.86600000 0.00000000 -0.50000000
vn -0.50000000 0.00000000 0.86600000
vn 0.00000000 1.00000000 0.00000000
vn -0.50000000 0.00000000 0.86600000
vn -0.50000000 0.00000000 0.86600000
vn 0.00000000 1.00000000 0.00000000
vn -0.50000000 0.00000000 0.86600000
vn 0.00000000 1.00000000 0.00000000
vn 0.50000000 0.00000000 -0.86600000
vn 0.50010000 0.00000000 -0.86600000
vn -0.86600000 0.00000000 -0.50000000
vn 0.86600000 0.00000000 0.50000000
vn 0.86600000 0.00000000 0.50000000
vn 0.50000000 0.00000000 -0.86600000
vn 0.50000000 0.00000000 -0.86600000
vn -0.86600000 0.00000000 -0.50000000
vn -0.50000000 0.00000000 0.86600000
vn -0.50000000 0.00000000 0.86600000
vn -0.50010000 0.00000000 0.86600000
vn -0.50000000 0.00000000 0.86600000
vn 0.00000000 1.00000000 0.00000000
vn 0.00000000 1.00000000 0.00000000
vn 0.00000000 1.00000000 0.00000000
vn 0.50000000 0.00000000 -0.86600000
vn 0.50010000 0.00000000 -0.86600000
vn -0.86600000 0.00000000 -0.50000000
vn 0.00000000 1.00000000 0.00000000
vn 0.86600000 0.00000000 0.50000000
vn 0.86600000 0.00000000 0.50000000
vn 0.50000000 0.00000000 -0.86600000
vn 0.00000000 1.00000000 0.00000000
vn 0.50000000 0.00000000 -0.86600000
vn 0.00000000 1.00000000 0.00000000
vn 0.00000000 1.00000000 0.00000000
vn -0.86600000 0.00000000 -0.50000000
vn -0.50000000 0.00000000 0.86600000
vn -0.50000000 0.00000000 0.86600000
vn -0.50010000 0.00000000 0.86600000
vn 0.00000000 1.00000000 0.00000000
vn 0.00000000 1.00000000 0.00000000
vn -0.50000000 0.00000000 0.86600000
vn 0.00000000 1.00000000 0.00000000
vn 0.00000000 1.00000000 0.00000000
vn 0.50000000 0.00000000 -0.86600000
vn 0.50000000 0.00000000 -0.86600000
vn -0.86600000 0.00000000 -0.50000000
vn 0.86600000 0.00000000 0.50000000
vn 0.86600000 0.00000000 0.50000000
vn 0.50000000 0.00000000 -0.86600000
vn 0.50000000 0.00000000 -0.86600000
vn -0.86600000 0.00000000 -0.50000000
vn -0.50000000 0.00000000 0.86600000
vn -0.50000000 0.00000000 0.86600000
vn -0.50010000 0.00000000 0.86600000
vn -0.50000000 0.00000000 0.86600000
vn 0.00000000 1.00000000 0.00000000
vn 0.00000000 1.00000000 0.00000000
vn -0.27070000 0.00000000 -0.96270000
vn -0.27070000 0.00000000 -0.96270000
vn -0.27120000 -0.00000000 -0.96250000
vn -0.86600000 0.00000000 -0.50000000
vn -0.86600000 0.00000000 -0.50000000
vn -0.86600000 0.00000000 -0.50000000
vn -0.86600000 0.00000000 -0.50000000
vn 0.50000000 0.00000000 -0.86600000
vn 0.50000000 0.00000000 -0.86600000
vn 0.50000000 0.00000000 -0.86600000
vn -0.27110000 0.00000000 -0.96260000
vn 0.96900000 -0.00000000 -0.24720000
vn 0.96910000 0.00000000 -0.24690000
vn 0.96910000 0.00000000 -0.24690000
vn 0.50000000 0.00000000 -0.86600000
vn 0.86600000 0.00000000 0.50000000
vn 0.86600000 0.00000000 0.50000000
vn 0.86600000 0.00000000 0.50000000
vn 0.00000000 1.00000000 0.00000000
vn 0.96890000 0.00000000 -0.24740000
vn 0.00000000 1.00000000 0.00000000
vn 0.00000000 1.00000000 0.00000000
vn 0.27120000 0.00000000 0.96250000
vn 0.27130000 -0.00000000 0.96250000
vn 0.27120000 0.00000000 0.96250000
vn 0.86600000 0.00000000 0.50000000
vn -0.50000000 0.00000000 0.86600000
vn -0.50000000 0.00000000 0.86600000
vn -0.50000000 0.00000000 0.86600000
vn 0.27120000 0.00000000 0.96250000
vn -0.96900000 0.00000000 0.24720000
vn -0.96890000 -0.00000000 0.24740000
vn -0.96900000 0.00000000 0.24720000
vn -0.50000000 0.00000000 0.86600000
vn 0.00000000 1.00000000 0.00000000
vn -0.96890000 0.00000000 0.24730000
vn -0.50000000 0.00000000 0.86600000
vn -0.50000000 0.00000000 0.86600000
vn 0.50000000 0.00000000 0.86600000
vn -1.00000000 0.00000000 0.00010000
vn -1.00000000 0.00000000 -0.00010000
vn -0.50000000 0.00000000 0.86600000
vn -0.50000000 0.00000000 0.86600000
vn 0.49990000 0.00000000 0.86610000
vn 1.00000000 0.00000000 -0.00010000
vn 1.00000000 0.00000000 -0.00020000
vn 0.50000000 0.00000000 -0.86600000
vn 0.50000000 0.00000000 -0.86600000
vn 0.50000000 0.00000000 -0.86600000
vn -0.50010000 0.00010000 -0.86600000
vn 0.50000000 0.00000000 -0.86600000
vn -0.49990000 0.00010000 -0.86610000
vn -0.00000000 -1.00000000 0.00000000
vn -0.00000000 -1.00000000 0.00000000
vn -0.00000000 -1.00000000 0.00000000
vn -0.00000000 -1.00000000 0.00000000
vn -0.00000000 -1.00000000 0.00000000
vn -0.00000000 -1.00000000 0.00000000
vn -0.00000000 -1.00000000 0.00000000
vn -0.00000000 -1.00000000 0.00000000
vn -0.00000000 -1.00000000 0.00000000
vn -0.00000000 -1.00000000 0.00000000
vn -0.00000000 -1.00000000 0.00000000
vn -0.00000000 -1.00000000 0.00000000
vn -0.00000000 -1.00000000 0.00000000
vn -0.00000000 -1.00000000 0.00000000
vn -0.00000000 -1.00000000 0.00000000
vn -0.00000000 -1.00000000 0.00000000
vn -0.00000000 -1.00000000 0.00000000
vn -0.00000000 -1.00000000 0.00000000
vn -0.00000000 -1.00000000 0.00000000
vn -0.00000000 -1.00000000 0.00000000
vn -0.00000000 -1.00000000 0.00000000
vn -0.00000000 -1.00000000 0.00000000
vn -0.00000000 -1.00000000 0.00000000
vn -0.00000000 -1.00000000 0.00000000
vn -0.00000000 -1.00000000 0.00000000
vn -0.00000000 -1.00000000 0.00000000
vn -0.00000000 -1.00000000 0.00000000
vn -0.00000000 -1.00000000 0.00000000
vn 0.50000000 0.00000000 -0.86600000
vn 0.50000000 0.00000000 -0.86600000
vn 0.50000000 0.00000000 -0.86600000
vn -0.86600000 0.00000000 -0.50000000
vn -0.86600000 0.00000000 -0.50000000
vn -0.86600000 0.00000000 -0.50000000
vn 0.50000000 0.00000000 -0.86600000
vn 0.86600000 0.00000000 0.50000000
vn 0.86600000 0.00000000 0.50000000
vn 0.86600000 0.00000000 0.50000000
vn 0.86600000 0.00000000 0.50000000
vn -0.50000000 0.00000000 0.86600000
vn -0.50000000 0.00000000 0.86600000
vn -0.50000000 0.00000000 0.86600000
vn -0.50000000 0.00000000 0.86600000
vn -0.86600000 0.00000000 -0.50000000
vn -0.00000000 -1.00000000 0.00000000
vn -0.00000000 -1.00000000 0.00000000
vn -0.00000000 -1.00000000 0.00000000
vn -0.00000000 -1.00000000 0.00000000
vn 0.00000000 1.00000000 0.00000000
vn 0.00000000 1.00000000 0.00000000
vn 0.00000000 1.00000000 0.00000000
vn 0.00000000 1.00000000 0.00000000
vn 0.00000000 1.00000000 0.00000000
vn 0.00000000 1.00000000 0.00000000
vt 0.08060200 0.15610500
vt 0.24428200 0.03424100
vt 0.25144600 0.03317100
vt 0.25144600 0.03087800
vt 0.25144600 0.03317100
vt 0.24428200 0.03424100
vt 0.55608100 0.05539700
vt 0.24927700 0.02964000
vt 0.24927700 0.02734400
vt 0.24927700 0.02964000
vt 0.25144600 0.03317100
vt 0.08182300 0.16056000
vt 0.34273500 0.08916600
vt 0.35021400 0.08639000
vt 0.25144600 0.03087800
vt 0.07102300 0.15664400
vt 0.24216000 0.03069500
vt 0.24428200 0.03194800
vt 0.24216000 0.03069500
vt 0.25234600 0.00230800
vt 0.24216000 0.02840000
vt 0.24216000 0.03069500
vt 0.00364900 0.17572000
vt 0.24216000 0.02840000
vt 0.07215200 0.16110700
vt 0.08182300 0.15841700
vt 0.08182300 0.16056000
vt 0.07215200 0.16110700
vt 0.08060200 0.15395400
vt 0.08060200 0.15610500
vt 0.08182300 0.16056000
vt 0.08182300 0.15841700
vt 0.07215200 0.15896500
vt 0.07102300 0.15664400
vt 0.07102300 0.15449400
vt 0.07102300 0.15664400
vt 0.07102300 0.15449400
vt 0.42590000 0.23884700
vt 0.51722400 0.08499600
vt 0.52422000 0.08283700
vt 0.52422000 0.08058500
vt 0.52422000 0.08283700
vt 0.51722400 0.08499600
vt 0.51979400 0.07945500
vt 0.51979400 0.07719900
vt 0.51979400 0.07945500
vt 0.52422000 0.08283700
vt 0.43122200 0.24327100
vt 0.52422000 0.08058500
vt 0.41550100 0.24107600
vt 0.51282700 0.08158700
vt 0.51722400 0.08274600
vt 0.51282700 0.08158700
vt 0.51282700 0.07933300
vt 0.51282700 0.08158700
vt 0.35275300 0.09548700
vt 0.36027100 0.09264700
vt 0.51282700 0.07933300
vt 0.43198200 0.28414900
vt 0.42074200 0.24553500
vt 0.43122200 0.24130200
vt 0.43122200 0.24327100
vt 0.42074200 0.24553500
vt 0.42590000 0.23686700
vt 0.42590000 0.23884700
vt 0.43122200 0.24327100
vt 0.43122200 0.24130200
vt 0.42074200 0.24357100
vt 0.41550100 0.24107600
vt 0.41550100 0.23910100
vt 0.41550100 0.24107600
vt 0.41550100 0.23910100
vt 0.00000000 0.14723100
vt 0.20916900 0.00811200
vt 0.25234600 0.00000000
vt 0.25234600 0.00230800
vt 0.20916900 0.00811200
vt 0.55608100 0.05311900
vt 0.55608100 0.05539700
vt 0.25234600 0.00230800
vt 0.25234600 0.00000000
vt 0.20916900 0.00580600
vt 0.20916900 0.00811200
vt 0.00000000 0.14723100
vt 0.20916900 0.00580600
vt 0.00000000 0.14506500
vt 0.00000000 0.14723100
vt 0.00364900 0.17572000
vt 0.00000000 0.14506500
vt 0.00364900 0.17360500
vt 0.00364900 0.17572000
vt 0.43198200 0.28414900
vt 0.34393500 0.09372400
vt 0.00364900 0.17360500
vt 0.58575700 0.07542300
vt 0.50253100 0.26847300
vt 0.43198200 0.28228600
vt 0.43198200 0.28414900
vt 0.50253100 0.26847300
vt 0.43198200 0.28228600
vt 0.50253100 0.26656800
vt 0.50253100 0.26847300
vt 0.58575700 0.07542300
vt 0.50253100 0.26656800
vt 0.58575700 0.07316300
vt 0.58575700 0.07542300
vt 0.55608100 0.05539700
vt 0.58575700 0.07316300
vt 0.35892200 0.08810700
vt 0.55608100 0.05311900
vt 0.36027100 0.10704000
vt 0.36027100 0.09264700
vt 0.35275300 0.09548700
vt 0.35892600 0.10253800
vt 0.35892200 0.08810700
vt 0.36027100 0.09264700
vt 0.36027100 0.10704000
vt 0.35275900 0.10985700
vt 0.34393500 0.09372400
vt 0.34393100 0.10810600
vt 0.34273500 0.08916600
vt 0.34273500 0.10358600
vt 0.34273500 0.08916600
vt 0.35021400 0.08639000
vt 0.34273500 0.10358600
vt 0.35020800 0.10083200
vt 0.25234600 0.00000000
vt 0.24927700 0.02734400
vt 0.25144600 0.03087800
vt 0.08182300 0.15841700
vt 0.24428200 0.03194800
vt 0.28604900 0.20950600
vt 0.24216000 0.02840000
vt 0.08060200 0.15395400
vt 0.07102300 0.15449400
vt 0.43198200 0.28228600
vt 0.07215200 0.15896500
vt 0.00364900 0.17360500
vt 0.55608100 0.05311900
vt 0.51979400 0.07719900
vt 0.52422000 0.08058500
vt 0.43122200 0.24130200
vt 0.51722400 0.08274600
vt 0.51282700 0.07933300
vt 0.42590000 0.23686700
vt 0.41550100 0.23910100
vt 0.43921400 0.17977800
vt 0.42074200 0.24357100
vt 0.40125100 0.23061300
vt 0.20916900 0.00580600
vt 0.33423000 0.16198600
vt 0.50253100 0.26656800
vt 0.58575700 0.07316300
vt 0.00000000 0.14506500
vt 0.28604900 0.17440800
vt 0.33423000 0.16198600
vt 0.28604900 0.20950600
vt 0.33423000 0.12540800
vt 0.43921400 0.17977800
vt 0.33423000 0.16198600
vt 0.33423000 0.12540800
vt 0.40125100 0.19628100
vt 0.28604900 0.20950600
vt 0.40125100 0.23061300
vt 0.28604900 0.17440800
vt 0.43921400 0.14371500
vt 0.40125100 0.23061300
vt 0.43921400 0.17977800
vt 0.40125100 0.19628100
vt 0.43921400 0.14371500
vt 0.40125100 0.19628100
vt 0.43921400 0.14371500
vt 0.33423000 0.12540800
vt 0.28604900 0.17440800
vt 0.35275900 0.10985700
vt 0.35892600 0.10253800
vt 0.36027100 0.10704000
vt 0.34393100 0.10810600
vt 0.35020800 0.10083200
vt 0.34273500 0.10358600
f 1/1/1 2/2/2 3/3/3
f 4/4/4 5/5/5 6/6/6
f 7/7/7 3/3/3 8/8/8
f 9/9/9 10/10/10 11/11/11
f 1/1/1 3/3/3 12/12/12
f 13/13/13 12/12/12 3/3/3
f 14/14/14 3/3/3 7/7/7
f 14/14/14 13/13/13 3/3/3
f 9/9/9 11/11/11 15/15/15
f 16/16/16 17/17/17 2/2/2
f 18/18/18 6/6/6 19/19/19
f 1/1/1 16/16/16 2/2/2
f 18/18/18 4/4/4 6/6/6
f 20/20/20 8/8/8 17/17/17
f 21/21/21 22/22/22 10/10/10
f 23/23/23 17/17/17 16/16/16
f 23/23/23 20/20/20 17/17/17
f 18/18/18 19/19/19 24/24/24
f 7/7/7 8/8/8 20/20/20
f 21/21/21 10/10/10 9/9/9
f 23/23/23 25/25/25 12/12/12
f 26/26/26 27/27/27 28/28/28
f 29/29/29 30/30/30 31/31/31
f 13/13/13 23/23/23 12/12/12
f 29/29/29 31/31/31 32/32/32
f 23/23/23 16/16/16 25/25/25
f 33/33/33 28/28/28 34/34/34
f 33/33/33 26/26/26 28/28/28
f 35/35/35 36/36/36 30/30/30
f 33/33/33 34/34/34 37/37/37
f 35/35/35 30/30/30 29/29/29
f 38/38/38 39/39/39 40/40/40
f 41/41/41 42/42/42 43/43/43
f 7/7/7 40/40/40 44/44/44
f 45/45/45 46/46/46 47/47/47
f 38/38/38 40/40/40 48/48/48
f 7/7/7 48/48/48 40/40/40
f 45/45/45 47/47/47 49/49/49
f 50/50/50 51/51/51 39/39/39
f 52/52/52 43/43/43 53/53/53
f 38/38/38 50/50/50 39/39/39
f 52/52/52 41/41/41 43/43/43
f 7/7/7 44/44/44 51/51/51
f 54/54/54 55/55/55 46/46/46
f 23/23/23 51/51/51 50/50/50
f 56/56/56 51/51/51 23/23/23
f 57/57/57 7/7/7 51/51/51
f 56/56/56 57/57/57 51/51/51
f 52/52/52 53/53/53 58/58/58
f 54/54/54 46/46/46 45/45/45
f 59/59/59 60/60/60 48/48/48
f 61/61/61 62/62/62 63/63/63
f 64/64/64 65/65/65 66/66/66
f 7/7/7 59/59/59 48/48/48
f 64/64/64 66/66/66 67/67/67
f 23/23/23 50/50/50 60/60/60
f 68/68/68 63/63/63 69/69/69
f 59/59/59 23/23/23 60/60/60
f 68/68/68 61/61/61 63/63/63
f 70/70/70 71/71/71 65/65/65
f 68/68/68 69/69/69 72/72/72
f 70/70/70 65/65/65 64/64/64
f 73/73/73 74/74/74 20/20/20
f 75/75/75 76/76/76 77/77/77
f 23/23/23 73/73/73 20/20/20
f 78/78/78 79/79/79 80/80/80
f 78/78/78 80/80/80 81/81/81
f 82/82/82 83/83/83 84/84/84
f 85/85/85 75/75/75 77/77/77
f 86/86/86 87/87/87 88/88/88
f 82/82/82 84/84/84 89/89/89
f 90/90/90 91/91/91 92/92/92
f 93/93/93 56/56/56 23/23/23
f 13/13/13 93/93/93 23/23/23
f 86/86/86 88/88/88 94/94/94
f 95/95/95 96/96/96 59/59/59
f 97/97/97 98/98/98 99/99/99
f 7/7/7 95/95/95 59/59/59
f 90/90/90 92/92/92 100/100/100
f 101/101/101 102/102/102 103/103/103
f 97/97/97 99/99/99 104/104/104
f 105/105/105 106/106/106 107/107/107
f 101/101/101 103/103/103 108/108/108
f 109/109/109 7/7/7 57/57/57
f 109/109/109 14/14/14 7/7/7
f 105/105/105 107/107/107 110/110/110
f 111/111/111 112/112/112 113/113/113
f 114/114/114 115/115/115 116/116/116
f 114/114/114 116/116/116 117/117/117
f 118/118/118 113/113/113 119/119/119
f 118/118/118 111/111/111 113/113/113
f 120/120/120 119/119/119 121/121/121
f 118/118/118 119/119/119 120/120/120
f 122/122/122 123/123/123 124/124/124
f 120/120/120 121/121/121 125/125/125
f 126/126/126 124/124/124 115/115/115
f 122/122/122 124/124/124 126/126/126
f 126/126/126 115/115/115 114/114/114
f 127/127/127 128/128/128 129/129/129
f 130/130/130 129/129/129 131/131/131
f 132/132/132 129/129/129 130/130/130
f 132/132/132 127/127/127 129/129/129
f 127/127/127 133/133/133 128/128/128
f 134/134/134 131/131/131 133/133/133
f 135/135/135 134/134/134 133/133/133
f 127/127/127 135/135/135 133/133/133
f 134/134/134 130/130/130 131/131/131
f 136/136/136 130/130/130 137/137/137
f 132/132/132 130/130/130 136/136/136
f 138/138/138 137/137/137 135/135/135
f 138/138/138 135/135/135 127/127/127
f 138/138/138 136/136/136 137/137/137
f 139/139/139 140/140/140 141/141/141
f 142/142/142 141/141/141 143/143/143
f 136/136/136 141/141/141 142/142/142
f 136/136/136 139/139/139 141/141/141
f 127/127/127 144/144/144 140/140/140
f 139/139/139 127/127/127 140/140/140
f 145/145/145 143/143/143 144/144/144
f 146/146/146 145/145/145 144/144/144
f 147/147/147 146/146/146 144/144/144
f 147/147/147 144/144/144 127/127/127
f 145/145/145 142/142/142 143/143/143
f 136/136/136 142/142/142 148/148/148
f 136/136/136 148/148/148 146/146/146
f 149/149/149 136/136/136 146/146/146
f 147/147/147 149/149/149 146/146/146
f 150/150/150 138/138/138 127/127/127
f 132/132/132 151/151/151 127/127/127
f 147/147/147 127/127/127 151/151/151
f 152/152/152 153/153/153 139/139/139
f 136/136/136 152/152/152 139/139/139
f 149/149/149 132/132/132 136/136/136
f 150/150/150 154/154/154 138/138/138
f 155/155/155 156/156/156 157/157/157
f 158/158/158 159/159/159 160/160/160
f 155/155/155 161/161/161 156/156/156
f 162/162/162 163/163/163 164/164/164
f 165/165/165 163/163/163 162/162/162
f 166/166/166 167/167/167 168/168/168
f 169/169/169 167/167/167 166/166/166
f 170/170/170 159/159/159 158/158/158
f 171/171/171 172/172/172 173/173/173
f 174/174/174 171/171/171 173/173/173
f 175/175/175 176/176/176 177/177/177
f 178/178/178 179/179/179 176/176/176
f 175/175/175 178/178/178 176/176/176
f 178/178/178 180/180/180 179/179/179

